<?xml version="1.0" encoding="UTF-8"?>
<svg id="Layer_2" data-name="Layer 2" xmlns="http://www.w3.org/2000/svg" xmlns:xlink="http://www.w3.org/1999/xlink" viewBox="0 0 303.48 455.01">
  <defs>
    <style>
      .cls-1 {
        stroke: #ffd7b5;
        stroke-width: 1.35px;
      }

      .cls-1, .cls-2, .cls-3, .cls-4, .cls-5, .cls-6, .cls-7, .cls-8, .cls-9, .cls-10, .cls-11, .cls-12, .cls-13, .cls-14 {
        stroke-linecap: round;
        stroke-linejoin: round;
      }

      .cls-1, .cls-2, .cls-3, .cls-4, .cls-5, .cls-6, .cls-7, .cls-8, .cls-9, .cls-10, .cls-12, .cls-13, .cls-14 {
        fill: none;
      }

      .cls-15 {
        fill: #5889ac;
      }

      .cls-16 {
        fill: url(#linear-gradient-2);
      }

      .cls-2 {
        stroke: #315f84;
        stroke-width: 1.26px;
      }

      .cls-2, .cls-17, .cls-5, .cls-18, .cls-19, .cls-20, .cls-7, .cls-21, .cls-8, .cls-22, .cls-9, .cls-23, .cls-13, .cls-24 {
        isolation: isolate;
      }

      .cls-2, .cls-17, .cls-8 {
        opacity: .5;
      }

      .cls-3 {
        stroke: #ff9cc0;
        stroke-width: 2.69px;
      }

      .cls-4 {
        stroke: #fff9f0;
        stroke-width: 2.87px;
      }

      .cls-17 {
        fill: #e75b91;
      }

      .cls-25 {
        fill: #fff0ed;
      }

      .cls-5 {
        stroke-width: .93px;
      }

      .cls-5, .cls-9 {
        opacity: .65;
        stroke: #eaa47d;
      }

      .cls-18 {
        fill: #2b597d;
        opacity: .45;
      }

      .cls-26 {
        fill: #ed4f64;
      }

      .cls-6 {
        stroke: #3b2219;
        stroke-width: 3.59px;
      }

      .cls-27 {
        fill: url(#linear-gradient-4);
      }

      .cls-28 {
        fill: url(#radial-gradient);
      }

      .cls-29 {
        fill: url(#radial-gradient-3);
      }

      .cls-19 {
        fill: #eea37c;
        opacity: .23;
      }

      .cls-30 {
        fill: url(#linear-gradient-3);
      }

      .cls-31 {
        fill: url(#linear-gradient-5);
      }

      .cls-20 {
        fill: url(#radial-gradient-4);
      }

      .cls-20, .cls-21 {
        opacity: .78;
      }

      .cls-7 {
        opacity: .48;
        stroke: #d94e83;
        stroke-width: 1.26px;
      }

      .cls-32 {
        fill: #f3926d;
      }

      .cls-21 {
        fill: url(#radial-gradient-5);
      }

      .cls-8 {
        stroke: #d84980;
        stroke-width: 1.44px;
      }

      .cls-33 {
        fill: url(#linear-gradient-8);
      }

      .cls-22 {
        fill: #e85590;
        opacity: .58;
      }

      .cls-9 {
        stroke-width: .93px;
      }

      .cls-34 {
        fill: #7e222d;
      }

      .cls-35 {
        fill: url(#radial-gradient-2);
      }

      .cls-23 {
        fill: #db4a83;
      }

      .cls-23, .cls-24 {
        opacity: .3;
      }

      .cls-10 {
        stroke: #d0467b;
        stroke-width: 3.59px;
      }

      .cls-36 {
        fill: url(#linear-gradient-7);
      }

      .cls-37 {
        fill: url(#linear-gradient-9);
      }

      .cls-11 {
        fill: #f9efe8;
        stroke: #d7b3b1;
        stroke-width: 1.08px;
      }

      .cls-38 {
        fill: url(#linear-gradient-6);
      }

      .cls-12 {
        stroke: #ffe0bc;
        stroke-width: 1.26px;
      }

      .cls-13 {
        opacity: .7;
        stroke: #ffa1c3;
      }

      .cls-13, .cls-14 {
        stroke-width: 2.42px;
      }

      .cls-39 {
        fill: #ffe7e6;
      }

      .cls-40 {
        fill: url(#linear-gradient);
      }

      .cls-24 {
        fill: #cb3a71;
      }

      .cls-14 {
        stroke: #493022;
      }

      .cls-41 {
        fill: #ffc55d;
      }
    </style>
    <linearGradient id="linear-gradient" x1="1365.29" y1="-871.98" x2="1365.77" y2="-873.18" gradientTransform="translate(-80269.3204 -39349.6881) rotate(6.3023) scale(61.6926 -35.1824)" gradientUnits="userSpaceOnUse">
      <stop offset="0" stop-color="#f65d96"/>
      <stop offset=".55" stop-color="#ef4c8a"/>
      <stop offset="1" stop-color="#d93a76"/>
    </linearGradient>
    <linearGradient id="linear-gradient-2" x1="1447.4" x2="1447.88" y2="-873.18" gradientTransform="translate(92337.0827 -20286.8036) rotate(-173.6977) scale(61.6926 35.1824)" xlink:href="#linear-gradient"/>
    <linearGradient id="linear-gradient-3" x1="1385.12" y1="-856.9" x2="1386.32" y2="-858.1" gradientTransform="translate(-156701.9661 -101202.7655) rotate(6.3023) scale(120.5536 -97.6362)" gradientUnits="userSpaceOnUse">
      <stop offset="0" stop-color="#396b93"/>
      <stop offset=".55" stop-color="#477fa8"/>
      <stop offset="1" stop-color="#4e83aa"/>
    </linearGradient>
    <linearGradient id="linear-gradient-4" x1="1381.4" y1="-853.46" x2="1382.59" y2="-854.54" gradientTransform="translate(-171909.731 -81460.2399) rotate(-5) scale(118.875 -112.875)" gradientUnits="userSpaceOnUse">
      <stop offset="0" stop-color="#f577a5"/>
      <stop offset=".55" stop-color="#f4679f"/>
      <stop offset="1" stop-color="#e8518d"/>
    </linearGradient>
    <radialGradient id="radial-gradient" cx="1482.25" cy="-831.16" fx="1482.25" fy="-831.16" r="1.02" gradientTransform="translate(-69304.8117 10323.3566) rotate(-43.0665) scale(38.8563 -48)" gradientUnits="userSpaceOnUse">
      <stop offset="0" stop-color="#ffdab2"/>
      <stop offset=".6" stop-color="#ffc597"/>
      <stop offset="1" stop-color="#f9ac7d"/>
    </radialGradient>
    <linearGradient id="linear-gradient-5" x1="1451.82" y1="-855.54" x2="1452.66" y2="-856.74" gradientTransform="translate(61992.4726 -96727.2714) rotate(158.0307) scale(64.5 77.9168)" gradientUnits="userSpaceOnUse">
      <stop offset="0" stop-color="#fa7dab"/>
      <stop offset=".55" stop-color="#f2649b"/>
      <stop offset="1" stop-color="#e74c87"/>
    </linearGradient>
    <radialGradient id="radial-gradient-2" cx="1345.09" cy="-886.28" fx="1345.09" fy="-886.28" r="1.02" gradientTransform="translate(67666.8375 -1166.1273) rotate(-141.9447) scale(38.8563 48)" xlink:href="#radial-gradient"/>
    <linearGradient id="linear-gradient-6" x1="1360.79" y1="-855.19" x2="1361.63" y2="-856.39" gradientTransform="translate(-68646.1943 -85930.3086) rotate(14.1237) scale(64.5 -77.9168)" xlink:href="#linear-gradient-5"/>
    <linearGradient id="linear-gradient-7" x1="1386.42" y1="-850.22" x2="1387.5" y2="-851.42" gradientTransform="translate(-230277.7649 -123194.3587) rotate(-9) scale(150.1751 -185.5026)" gradientUnits="userSpaceOnUse">
      <stop offset="0" stop-color="#ff8bb7"/>
      <stop offset=".45" stop-color="#fa77a9"/>
      <stop offset="1" stop-color="#ed6099"/>
    </linearGradient>
    <linearGradient id="linear-gradient-8" x1="1380.98" y1="-851.2" x2="1381.46" y2="-852.39" gradientTransform="translate(-174042.3775 -70656.4395) rotate(-9) scale(116.5339 -114.01)" gradientUnits="userSpaceOnUse">
      <stop offset="0" stop-color="#bd3d70"/>
      <stop offset=".55" stop-color="#d54e81"/>
      <stop offset="1" stop-color="#e66090"/>
    </linearGradient>
    <radialGradient id="radial-gradient-3" cx="1380.38" cy="-851.98" fx="1380.38" fy="-851.98" r="1.02" gradientTransform="translate(-167714.9031 -62941.5511) rotate(-9) scale(112.9494 -103.8977)" xlink:href="#radial-gradient"/>
    <radialGradient id="radial-gradient-4" cx="1259.95" cy="-870.9" fx="1259.95" fy="-870.9" r=".6" gradientTransform="translate(-25415.3487 -12920.3621) scale(20.25 -15)" gradientUnits="userSpaceOnUse">
      <stop offset="0" stop-color="#ff9e86"/>
      <stop offset="1" stop-color="#ffb191"/>
    </radialGradient>
    <radialGradient id="radial-gradient-5" cx="1260.74" fx="1260.74" gradientTransform="translate(-25336.2818 -12935.3955) scale(20.25 -15)" xlink:href="#radial-gradient-4"/>
    <linearGradient id="linear-gradient-9" x1="1383.27" y1="-852.75" x2="1383.99" y2="-853.95" gradientTransform="translate(-185005.4502 -37884.5228) rotate(-9) scale(127.875 -78.014)" gradientUnits="userSpaceOnUse">
      <stop offset="0" stop-color="#ff92bc"/>
      <stop offset=".6" stop-color="#fa7aab"/>
      <stop offset="1" stop-color="#ed649a"/>
    </linearGradient>
  </defs>
  <g id="kak_naya" data-name="kak naya">
    <g id="panel-pose-celebrate">
      <g id="pose-celebrate-editable">
        <g>
          <g>
            <g>
              <path class="cls-40" d="M89.01,394.88c14.29,7,29.4,9.27,45.33,6.81l-2.27,20.53c-9.81,7.05-27.76,14.1-44.92,14.01-12.7.41-27.77-2.16-29.76-8.71-1.19-5.55,8.82-14.39,19.33-19.55l12.29-13.1Z"/>
              <path class="cls-24" d="M89.71,396.76c13.69,6.93,28.17,9.44,43.45,7.51l-.99,8.93c-14.68,1.99-30.95-.71-48.8-8.1l6.34-8.34Z"/>
              <path class="cls-11" d="M57.99,422.18c14.09,11.5,43.05,11.08,74.09.05l-1.08,9.82c-23,11.92-57.32,11.74-70.62,1.24-3.37-2.18-4.17-5.88-2.39-11.11Z"/>
              <path class="cls-4" d="M82.08,408.57c9.12-.8,16.99,1.58,23.61,7.13M76.13,413.34c8-1.53,15.57.82,22.72,7.03"/>
            </g>
            <g>
              <path class="cls-16" d="M206.85,407.89c-15.47,3.71-30.71,2.63-45.73-3.24l-2.27,20.53c8.04,9.02,24.02,19.82,40.78,23.48,12.3,3.17,27.58,3.95,30.94-2,2.38-5.16-5.47-15.96-14.6-23.3l-9.14-15.47Z"/>
              <path class="cls-24" d="M205.76,409.58c-14.87,3.78-29.55,3.06-44.04-2.15l-.99,8.93c13.89,5.15,30.35,6.06,49.39,2.74l-4.37-9.52Z"/>
              <path class="cls-11" d="M231.17,441.3c-16.26,8.14-44.43,1.42-72.31-16.12l-1.08,9.82c19.85,16.65,53.38,23.97,68.65,16.62,3.77-1.39,5.35-4.83,4.75-10.32Z"/>
              <path class="cls-4" d="M210.63,422.77c-8.73-2.77-16.93-2.17-24.6,1.8M215.39,428.72c-7.47-3.23-15.37-2.6-23.7,1.9"/>
            </g>
            <path class="cls-30" d="M105.41,287.36c35.45,11.75,71.75,15.76,108.91,12.03l5.43,106.32c.33,2.45-1.06,4.1-4.16,4.96-19.63,5.96-40.17,3.7-57.43-3.63l1.33-85.69-22.76,83.33c-21.12,3.09-42.25-1.96-57.73-9.09-2.84-1.52-3.51-3.7-1.99-6.54l28.4-101.68Z"/>
            <path class="cls-18" d="M105.71,292.81c14.88,7.07,31.55,11.62,50,13.65l-2.96,18.65c-16.67-7.26-34.09-13.1-52.28-17.52l5.25-14.78ZM163.64,308.25l49.19-3.6,1.8,16.46-44.13,6.87-10.2,26.89,3.34-46.62Z"/>
            <path class="cls-15" d="M81.37,382.29c15.94,8.39,34.49,12.24,55.65,11.57l-.29,10.81c-19.04,3.32-38.55-.04-58.52-10.08l3.17-12.3ZM160.23,396.42c20.5,5.28,39.74,5.59,57.72.95l.41,12.7c-19.9,5.63-39.97,4.62-60.21-3.03l2.08-10.61Z"/>
            <path class="cls-2" d="M105.62,318.1l-21.28,61.8"/>
          </g>
          <g>
            <g>
              <path class="cls-27" d="M106.57,193.03c16.88-13.2,75.03-18.28,94.84-8.3,14.91,15.83,13.6,42.09,16.14,60.8l16.67,46.32c1.51,3.47.55,6.26-2.87,8.37-39.24,15.15-91.14,19.69-134.21,11.74-3.68-.88-4.84-3.78-3.47-8.71l7.56-47.54c-2.04-23.26-5.7-44.58,5.34-62.67Z"/>
              <path class="cls-23" d="M101.88,232.21c12.58-.5,24.65-3.36,36.21-8.58l15.49,12.17c-23.61,8.38-39.86,28.73-55.14,49.9l3.43-53.49Z"/>
              <path class="cls-7" d="M96.83,308.38c45.88,9.21,90.62,5.29,134.21-11.74"/>
              <g>
                <ellipse class="cls-25" cx="199.03" cy="270.65" rx="4.58" ry="8.08" transform="translate(-51.92 47.3) rotate(-12)"/>
                <ellipse class="cls-25" cx="206.75" cy="274.08" rx="8.08" ry="4.58" transform="translate(-109.34 140.09) rotate(-30)"/>
                <ellipse class="cls-25" cx="205.87" cy="282.48" rx="4.58" ry="8.08" transform="translate(-141.81 246.45) rotate(-48)"/>
                <ellipse class="cls-25" cx="197.6" cy="284.24" rx="8.08" ry="4.58" transform="translate(-142.43 349.15) rotate(-66)"/>
                <ellipse class="cls-25" cx="193.38" cy="276.92" rx="4.58" ry="8.08" transform="translate(-102.24 440.3) rotate(-84)"/>
                <circle class="cls-39" cx="200.53" cy="277.67" r="3.14"/>
              </g>
            </g>
            <g>
              <g>
                <path class="cls-28" d="M52.48,159.65l-5.99-3.25c.42-2.36.02-5.59-1.2-9.7-.84-5.11-5.85-7.31-7.26-10.92l-2.18-10.75c-.35-4.59-6.45-4.79-6.13.81l.67,10.19-15.31-13.23c-4.45-3.71-8.12-.27-4.2,3.93l12.23,14.14-15.42-10.18c-4.48-2.69-7.18,1.79-3.22,4.97l14.86,11.69-15.13-3.56c-5.04-1.19-5.71,3.37-1.19,5.04l14.57,5.07-9.66.18c-5.08-.17-5.74,4.38-.7,5.57l12.64,1.95c4.97,3.22,11.03,4.44,15.69,2.05l9,4.37,7.91-8.37Z"/>
                <path class="cls-9" d="M35.69,144.85c-6.49,1.48-10.35,5.41-11.58,11.81M33.74,157.49c-2.4.94-4.94.68-7.6-.76"/>
              </g>
              <path class="cls-31" d="M121.16,187.67c-16.35-2.12-31.39-10.58-47.76-22.38l-23.57-17.61-18.78,23.07c12.71,12.3,27.09,23.94,41.63,33.57l29.24,17.26c11.19,6.14,23.34-4.57,25.81-15.25l-6.56-18.66Z"/>
              <path class="cls-8" d="M102.54,208.74c-15.48-7.96-29.01-16.7-40.6-26.23"/>
              <path class="cls-10" d="M49.33,148.85l-17.45,21.57"/>
              <path class="cls-3" d="M53.01,153.18l-16.95,20.4"/>
            </g>
            <g>
              <g>
                <path class="cls-35" d="M252.43,135.87l5.68-3.76c-.62-2.31-.51-5.57.35-9.77.39-5.17,5.19-7.8,6.27-11.51l1.23-10.9c-.05-4.6,6-5.34,6.17.27l.22,10.21,14.1-14.51c4.11-4.08,8.07-.98,4.53,3.54l-10.95,15.15,14.47-11.49c4.23-3.07,7.31,1.16,3.64,4.67l-13.78,12.94,14.76-4.87c4.92-1.62,5.98,2.85,1.62,4.92l-14.07,6.32,9.64-.66c5.04-.61,6.1,3.86,1.18,5.49l-12.42,3.05c-4.67,3.64-10.6,5.39-15.45,3.42l-8.59,5.14-8.61-7.65Z"/>
                <path class="cls-5" d="M267.85,119.66c6.59.9,10.78,4.49,12.57,10.75M270.9,132.08c2.48.72,4.98.25,7.5-1.43"/>
              </g>
              <path class="cls-38" d="M187.66,172.81c15.91-4.33,29.65-14.77,44.26-28.69l20.94-20.66,21.75,20.29c-10.91,13.92-23.57,27.41-36.65,38.94l-26.61,21.09c-10.25,7.61-23.74-1.34-27.65-11.59l3.95-19.38Z"/>
              <path class="cls-8" d="M208.98,191.15c14.25-10,26.46-20.51,36.64-31.53"/>
              <path class="cls-10" d="M253.52,124.56l20.23,18.98"/>
              <path class="cls-3" d="M250.46,129.34l19.58,17.89"/>
            </g>
            <g>
              <g>
                <path class="cls-36" d="M87.92,183.9c-23.49-16.28-35.09-43.55-36.31-74.27-1.75-39.73,15.7-78.87,46.41-97.37,32.21-20.56,69.66-13.76,96.05,9.34,31.53,26.83,41.26,65.3,32.55,102.15-3.54,17.84-12.22,31.94-16.74,43.57l10.42,25.63c-17.64,14.92-38,24.2-61.06,27.86-24.25,3.84-47.21.51-68.88-10.01l-2.44-26.89Z"/>
                <path class="cls-17" d="M75.11,51.35c-17.58,38.25-12.47,82,5.47,109.16-25.79-25.01-23.01-76.38-5.47-109.16Z"/>
                <path class="cls-33" d="M74.17,131.52c-5.48-34.6,3.56-75.13,27.04-93.4,18.44-15.65,42.53-18.56,62.24-8.95,26.62,13.06,45.27,44.66,47.94,78.79l-11.56,41.84-99.07,17.51-26.58-35.8Z"/>
                <path class="cls-29" d="M76.35,116.62c1.11-27.46,23.6-51.93,55.4-57.88,31.65-6.83,61.36,8.47,73.7,34.7,11.59,27.26,3.67,57.62-18.31,73.83-20.35,15.04-49.62,19.68-74.94,9.14-23.26-9.05-38.86-32.95-35.84-59.79Z"/>
                <path class="cls-19" d="M78.13,116.34c5.06,31.93,24.63,57.93,54.57,63.19-29.65-3.49-56.04-26.59-54.94-54.04l.37-9.15Z"/>
              </g>
              <path class="cls-6" d="M99.65,120.2c.41-14.61,18.9-18.45,24.7-4.82"/>
              <path class="cls-6" d="M160.86,110.51c.41-14.61,18.9-18.45,24.7-4.82"/>
              <path class="cls-14" d="M96.65,89.76c5.85-5.17,12.26-6.79,19.23-4.87M158.47,78.15c6.04-3.99,12.64-4.43,19.8-1.32"/>
              <ellipse class="cls-20" cx="98.73" cy="143.08" rx="12.12" ry="8.98" transform="translate(-21.17 17.21) rotate(-9)"/>
              <ellipse class="cls-21" cx="193.65" cy="128.05" rx="12.12" ry="8.98" transform="translate(-17.65 31.87) rotate(-9)"/>
              <path class="cls-32" d="M140.93,128.22c-.56-3.55,5.51-5.42,7.84-2.15,2.48,4.15-1.4,8.41-5.23,7.19l-2.62-5.04Z"/>
              <path class="cls-12" d="M142.57,127.05c1-1.37,2.18-1.56,3.55-.56"/>
              <g>
                <path class="cls-34" d="M128.1,144.8c.04-5.46,7.24-.24,17.14-.9,10.04.23,14.84-9.63,18.95-6.64,4.07,8.45,1.41,26.15-11.61,30.03-13.17,2.99-25.17-9.65-24.48-22.49Z"/>
                <path class="cls-26" d="M133.9,158.43c7-7.47,21.47-7.95,29.09-.06-5.55,10.88-17.83,13.74-29.09.06Z"/>
                <path class="cls-1" d="M132.68,144.98c9.03,3.42,17.95,2.31,26.75-3.33"/>
              </g>
              <g>
                <path class="cls-37" d="M79.97,162.42c20.09,17.73,42.74,28.69,69.91,28.03,26.15-1.41,49.44-15.11,64.51-34.77l14.44,22.27c-7.55,21.2-21.6,41.61-42.09,55.77-15.45,11.54-30.67,13.04-48.93,6.84-23.12-8.16-41.01-23.51-58.15-39.89-3.61-3.67-4.46-8.99-2.53-15.97l2.84-22.27Z"/>
                <path class="cls-22" d="M89.41,181.84c26.25,22.21,54.65,34.99,75.19,32.65,18.63-2.95,36.5-22.15,47.28-40.22-6.85,25.64-22.25,48.99-39.71,53.57-24.56,5.71-56.41-17.44-82.76-46Z"/>
                <path class="cls-13" d="M84.79,187.12c10.65,9.83,19.6,16.6,26.86,20.3"/>
              </g>
            </g>
          </g>
          <path class="cls-41" d="M33.77,54.45c1.2,4.19,3.59,6.89,7.19,8.08-3.59,1.2-5.99,3.89-7.19,8.08-1.2-4.19-3.59-6.89-7.19-8.08,3.59-1.2,5.99-3.89,7.19-8.08Z"/>
          <path class="cls-41" d="M259.66,56.69c1.2,4.19,3.59,6.89,7.19,8.08-3.59,1.2-5.99,3.89-7.19,8.08-1.2-4.19-3.59-6.89-7.19-8.08,3.59-1.2,5.99-3.89,7.19-8.08Z"/>
        </g>
      </g>
    </g>
  </g>
</svg>