<?xml version="1.0" encoding="UTF-8"?>
<svg id="Layer_2" data-name="Layer 2" xmlns="http://www.w3.org/2000/svg" xmlns:xlink="http://www.w3.org/1999/xlink" viewBox="0 0 273.44 341.91">
  <defs>
    <style>
      .cls-1 {
        fill: url(#radial-gradient-10);
      }

      .cls-2 {
        fill: url(#linear-gradient-3);
        stroke: #ce5b25;
        stroke-width: 1.42px;
      }

      .cls-2, .cls-3, .cls-4, .cls-5, .cls-6, .cls-7, .cls-8, .cls-9, .cls-10, .cls-11, .cls-12, .cls-13, .cls-14, .cls-15, .cls-16, .cls-17, .cls-18, .cls-19, .cls-20 {
        stroke-linecap: round;
        stroke-linejoin: round;
      }

      .cls-3 {
        stroke: #512b17;
      }

      .cls-3, .cls-4, .cls-5, .cls-21, .cls-6, .cls-8, .cls-9, .cls-11, .cls-12, .cls-13, .cls-14, .cls-17 {
        fill: none;
      }

      .cls-3, .cls-5 {
        stroke-width: 1.39px;
      }

      .cls-22 {
        fill: url(#linear-gradient-2);
      }

      .cls-23 {
        fill: url(#radial-gradient-9);
      }

      .cls-24 {
        fill: #ef683b;
      }

      .cls-4 {
        stroke: #dc9568;
        stroke-width: .87px;
      }

      .cls-25 {
        fill: #fffcf5;
      }

      .cls-5 {
        stroke: #ad3b25;
      }

      .cls-26 {
        fill: #fff;
      }

      .cls-6 {
        stroke: #ed812f;
        stroke-width: 5.63px;
      }

      .cls-27 {
        fill: url(#linear-gradient-4);
      }

      .cls-7 {
        fill: url(#radial-gradient-2);
      }

      .cls-7, .cls-11, .cls-28, .cls-15, .cls-16, .cls-18, .cls-19, .cls-20 {
        stroke: #c95924;
      }

      .cls-7, .cls-11, .cls-15, .cls-16, .cls-19 {
        stroke-width: 2.03px;
      }

      .cls-29 {
        clip-path: url(#clippath-1);
      }

      .cls-30 {
        fill: url(#linear-gradient-5);
      }

      .cls-31 {
        fill: url(#radial-gradient-11);
      }

      .cls-8 {
        stroke: #a84925;
      }

      .cls-8, .cls-28, .cls-18, .cls-20 {
        stroke-width: 2.09px;
      }

      .cls-32 {
        fill: url(#linear-gradient-8);
      }

      .cls-9 {
        stroke: #a94e20;
        stroke-width: 3.48px;
      }

      .cls-10 {
        fill: url(#linear-gradient-6);
        stroke: #258f90;
        stroke-width: 2.14px;
      }

      .cls-33 {
        clip-path: url(#clippath-3);
      }

      .cls-34 {
        fill: url(#radial-gradient-8);
      }

      .cls-12 {
        stroke: #a13d25;
        stroke-width: 2.32px;
      }

      .cls-35 {
        fill: url(#linear-gradient-7);
      }

      .cls-36 {
        fill: #9b623d;
      }

      .cls-37 {
        fill: url(#linear-gradient-9);
      }

      .cls-13 {
        stroke: #d18750;
      }

      .cls-13, .cls-14 {
        stroke-width: 1.13px;
      }

      .cls-14 {
        stroke: #dc9768;
      }

      .cls-28 {
        fill: url(#radial-gradient-7);
        stroke-miterlimit: 3.76;
      }

      .cls-38 {
        fill: #f09235;
      }

      .cls-15 {
        fill: url(#radial-gradient);
      }

      .cls-16 {
        fill: url(#radial-gradient-3);
      }

      .cls-39 {
        fill: #321308;
      }

      .cls-40 {
        clip-path: url(#clippath-2);
      }

      .cls-41 {
        fill: #208e90;
      }

      .cls-17 {
        stroke: #ec7e2b;
        stroke-width: 10.13px;
      }

      .cls-42 {
        fill: #ed802b;
      }

      .cls-43 {
        fill: url(#linear-gradient);
      }

      .cls-18 {
        fill: url(#radial-gradient-5);
      }

      .cls-44 {
        fill: #f68f9d;
      }

      .cls-45 {
        clip-path: url(#clippath);
      }

      .cls-19 {
        fill: url(#radial-gradient-4);
      }

      .cls-20 {
        fill: url(#radial-gradient-6);
      }
    </style>
    <radialGradient id="radial-gradient" cx="1720.2" cy="-2867.15" fx="1720.2" fy="-2867.15" r="1.08" gradientTransform="translate(-125631.821 -185796.8991) scale(73.1373 -64.8864)" gradientUnits="userSpaceOnUse">
      <stop offset="0" stop-color="#ffc473"/>
      <stop offset=".6" stop-color="#ffab4a"/>
      <stop offset="1" stop-color="#f79339"/>
    </radialGradient>
    <clipPath id="clippath">
      <path class="cls-21" d="M151.14,296.95c22.51,11.26,52.91,3.38,72.04-16.88,15.76-14.63,20.26-40.52,10.13-49.53-11.26-12.38-25.89-4.5-27.02,10.13,0,14.63-13.51,29.27-36.02,24.76l-19.14,31.52Z"/>
    </clipPath>
    <linearGradient id="linear-gradient" x1="1683.68" y1="-2916.99" x2="1684.52" y2="-2918.18" gradientTransform="translate(-61513.4313 -92129.3729) scale(36.66 -31.6545)" gradientUnits="userSpaceOnUse">
      <stop offset="0" stop-color="#fffaf1"/>
      <stop offset="1" stop-color="#ffeed8"/>
    </linearGradient>
    <radialGradient id="radial-gradient-2" cx="1681.9" cy="-2868.02" fx="1681.9" fy="-2868.02" r="1.08" gradientTransform="translate(-33367.5667 -185489.0752) rotate(6.2893) scale(31.8472 -63.0821)" xlink:href="#radial-gradient"/>
    <clipPath id="clippath-1">
      <path class="cls-21" d="M77.3,195.79c-14.17,5.23-32.67,29.24-38.24,49.01-4.96,14.18-.11,21.51,8.72,23.61,8.83,2.11,14.04-4.11,14.03-14.31,1.73-15.66,12.16-28.1,17.62-36.56l-2.13-21.75Z"/>
    </clipPath>
    <linearGradient id="linear-gradient-2" x1="1679.48" y1="-2931.24" x2="1680.32" y2="-2932.43" gradientTransform="translate(-42922.2864 -85574.9634) rotate(6.2893) scale(31.02 -27.495)" xlink:href="#linear-gradient"/>
    <radialGradient id="radial-gradient-3" cx="1794.75" cy="-2903.54" fx="1794.75" fy="-2903.54" r="1.08" gradientTransform="translate(126748.5512 -106779.6035) rotate(-180) scale(70.5 36.8406)" xlink:href="#radial-gradient"/>
    <linearGradient id="linear-gradient-3" x1="1689.18" y1="-2916.85" x2="1690.02" y2="-2918.05" gradientTransform="translate(-66444.612 -92433.6379) scale(39.4731 -31.746)" xlink:href="#linear-gradient"/>
    <radialGradient id="radial-gradient-4" cx="1729.3" cy="-2842.61" fx="1729.3" fy="-2842.61" r="1.08" gradientTransform="translate(-168089.9178 -377182.2452) scale(97.2602 -132.7656)" xlink:href="#radial-gradient"/>
    <clipPath id="clippath-2">
      <path class="cls-21" d="M91.22,181.91c-19.14,11.26-27.02,42.78-25.89,69.79,0,25.89,7.88,39.4,10.13,57.41l-1.13,10.13c-10.13,5.63-11.26,15.76-1.13,19.14,12.38,4.5,31.52,2.25,38.27-1.13,4.5-3.38,2.25-19.14,3.38-25.89l2.25-20.26c3.75,2.25,7.88,2.25,12.38,0l2.25,24.76c-2.25,14.63,0,22.51,10.13,23.64,13.51,3.38,33.77,0,36.02-6.75,3.38-6.75-3.38-11.26-7.88-14.63l1.13-19.14c11.26-27.02,13.51-55.16,6.75-81.05-4.5-16.88-14.63-30.39-23.64-36.02h-63.04Z"/>
    </clipPath>
    <linearGradient id="linear-gradient-4" x1="1715.26" y1="-2862.46" x2="1716.1" y2="-2863.66" gradientTransform="translate(-111192.3558 -203970.6695) scale(64.8788 -71.3246)" xlink:href="#linear-gradient"/>
    <linearGradient id="linear-gradient-5" x1="1730.6" y1="-2929.86" x2="1731.44" y2="-2931.06" gradientTransform="translate(-178878.8138 -82336.0101) scale(103.4 -28.211)" xlink:href="#linear-gradient"/>
    <linearGradient id="linear-gradient-6" x1="1723.64" y1="-2896.25" x2="1724.48" y2="-2897.45" gradientTransform="translate(-139238.5774 -116337.847) scale(80.84 -40.232)" gradientUnits="userSpaceOnUse">
      <stop offset="0" stop-color="#4db9b0"/>
      <stop offset="1" stop-color="#208f94"/>
    </linearGradient>
    <radialGradient id="radial-gradient-5" cx="1727.72" cy="-2857.45" fx="1727.72" fy="-2857.45" r="1.11" gradientTransform="translate(-133818.7232 -211778.6822) rotate(-4) scale(68.7316 -77.2143)" xlink:href="#radial-gradient"/>
    <radialGradient id="radial-gradient-6" cx="1728.12" cy="-2857.45" fx="1728.12" fy="-2857.45" r="1.11" gradientTransform="translate(-133699.4975 -211787.0192) rotate(-4) scale(68.7316 -77.2143)" xlink:href="#radial-gradient"/>
    <linearGradient id="linear-gradient-7" x1="1703.11" y1="-2874.07" x2="1704.1" y2="-2875.31" gradientTransform="translate(-74614.1901 -149123.1188) rotate(-4) scale(37.6 -53.58)" gradientUnits="userSpaceOnUse">
      <stop offset="0" stop-color="#ffb0b1"/>
      <stop offset="1" stop-color="#fa8d9f"/>
    </linearGradient>
    <linearGradient id="linear-gradient-8" x1="1704.21" y1="-2873.91" x2="1705.2" y2="-2875.14" gradientTransform="translate(-74471.633 -149133.0874) rotate(-4) scale(37.6 -53.58)" xlink:href="#linear-gradient-7"/>
    <radialGradient id="radial-gradient-7" cx="1745.63" cy="-2840.34" fx="1745.63" fy="-2840.34" r="1.11" gradientTransform="translate(-335837.2324 -374826.7151) rotate(-4) scale(176.9852 -139.9197)" xlink:href="#radial-gradient"/>
    <clipPath id="clippath-3">
      <path class="cls-21" d="M21.22,116.23c-.55-43.58,43.17-80.94,98.41-83.48,57.32-6.12,103.1,22.97,111.77,67.16,14.2,40.38-8.84,76.35-47.09,91.53-29.21,12.28-74.03,15.27-105.74,7.05-39.83-8.82-67.29-40.28-57.35-82.27Z"/>
    </clipPath>
    <linearGradient id="linear-gradient-9" x1="1749.81" y1="-2855.39" x2="1750.34" y2="-2856.14" gradientTransform="translate(-542515.1722 -294071.1118) rotate(-3.4461) scale(297.2357 -114.2658) skewX(-.2544)" xlink:href="#linear-gradient"/>
    <radialGradient id="radial-gradient-8" cx="1697.83" cy="-2963.59" fx="1697.83" fy="-2963.59" r=".62" gradientTransform="translate(-57405.3118 -61123.5591) scale(33.84 -20.68)" gradientUnits="userSpaceOnUse">
      <stop offset="0" stop-color="#f99b72" stop-opacity=".6"/>
      <stop offset="1" stop-color="#ffc99d" stop-opacity="0"/>
    </radialGradient>
    <radialGradient id="radial-gradient-9" cx="1698.73" fx="1698.73" gradientTransform="translate(-57275.9819 -61134.7297) scale(33.84 -20.68)" xlink:href="#radial-gradient-8"/>
    <radialGradient id="radial-gradient-10" cx="1654.59" cy="-2908.35" fx="1654.59" fy="-2908.35" r="1.11" gradientTransform="translate(-46574.5215 -95543.01) scale(28.2 -32.9)" gradientUnits="userSpaceOnUse">
      <stop offset="0" stop-color="#773a1e"/>
      <stop offset=".7" stop-color="#3e180d"/>
      <stop offset="1" stop-color="#24110c"/>
    </radialGradient>
    <radialGradient id="radial-gradient-11" cx="1655.23" cy="-2908.35" fx="1655.23" fy="-2908.35" r="1.11" gradientTransform="translate(-46497.6733 -95549.6476) scale(28.2 -32.9)" xlink:href="#radial-gradient-10"/>
  </defs>
  <g id="gavi">
    <g id="sample-pointing">
      <g>
        <g>
          <path class="cls-15" d="M151.14,296.95c22.51,11.26,52.91,3.38,72.04-16.88,15.76-14.63,20.26-40.52,10.13-49.53-11.26-12.38-25.89-4.5-27.02,10.13,0,14.63-13.51,29.27-36.02,24.76l-19.14,31.52Z"/>
          <g class="cls-45">
            <g>
              <path class="cls-43" d="M204.05,235.03c10.13,14.63,23.64,18.01,38.27,10.13l3.38-31.52-43.9-2.25,2.25,23.64Z"/>
              <path class="cls-17" d="M181.53,267.68c13.51,6.75,16.88,21.39,14.63,34.9M207.42,255.3c13.51,6.75,19.14,20.26,16.88,30.39"/>
            </g>
          </g>
          <path class="cls-11" d="M151.14,296.95c22.51,11.26,52.91,3.38,72.04-16.88,15.76-14.63,20.26-40.52,10.13-49.53-11.26-12.38-25.89-4.5-27.02,10.13,0,14.63-13.51,29.27-36.02,24.76l-19.14,31.52Z"/>
        </g>
        <g>
          <path class="cls-7" d="M77.3,195.79c-14.17,5.23-32.67,29.24-38.24,49.01-4.96,14.18-.11,21.51,8.72,23.61,8.83,2.11,14.04-4.11,14.03-14.31,1.73-15.66,12.16-28.1,17.62-36.56l-2.13-21.75Z"/>
          <g class="cls-29">
            <g>
              <path class="cls-22" d="M34.58,244.31c11.68-3.24,21.21-.68,28.6,7.68l2.76,26.35-36.92-4.07,5.57-29.96Z"/>
              <path class="cls-14" d="M45.65,256.86c-1.99,4.31-1.24,7.79,2.25,10.44M55.85,256.85c-1.32,5.14-.49,7.87,2.49,8.2"/>
            </g>
          </g>
        </g>
        <g>
          <path class="cls-16" d="M161.01,194.29c24.76,5.63,48.4-3.38,70.92-15.76l13.51,21.39c-24.76,19.14-55.16,25.89-75.42,21.39l-9.01-27.02Z"/>
          <g>
            <path class="cls-2" d="M227.4,196.43c-5.52-9.46,1.58-21.27,10.24-22.06l26.79-5.52c8.67-1.58,11.03,5.52,4.73,8.67l-17.34,6.3c9.46,1.58,8.67,7.88,5.52,9.46,2.36,6.3-3.94,10.24-9.46,11.82-8.93,3.68-15.76.79-20.49-8.67Z"/>
            <path class="cls-4" d="M244.74,185.4c5.78-2.1,9.46-1.05,11.03,3.15M247.1,194.07c5.25,0,8.4,1.05,9.46,3.15"/>
          </g>
        </g>
        <g>
          <path class="cls-19" d="M91.22,181.91c-19.14,11.26-27.02,42.78-25.89,69.79,0,25.89,7.88,39.4,10.13,57.41l-1.13,10.13c-10.13,5.63-11.26,15.76-1.13,19.14,12.38,4.5,31.52,2.25,38.27-1.13,4.5-3.38,2.25-19.14,3.38-25.89l2.25-20.26c3.75,2.25,7.88,2.25,12.38,0l2.25,24.76c-2.25,14.63,0,22.51,10.13,23.64,13.51,3.38,33.77,0,36.02-6.75,3.38-6.75-3.38-11.26-7.88-14.63l1.13-19.14c11.26-27.02,13.51-55.16,6.75-81.05-4.5-16.88-14.63-30.39-23.64-36.02h-63.04Z"/>
          <g class="cls-40">
            <g>
              <path class="cls-27" d="M103.6,198.79c-19.14,16.88-23.64,48.4-13.51,68.67,10.13,22.51,58.53,22.51,68.67-1.13,9.01-23.64,1.13-50.65-15.76-67.54h-39.4Z"/>
              <path class="cls-6" d="M69.83,256.2c10.51,0,13.88,2.63,10.13,7.88M75.46,280.96c9.76,1.5,12.01,4.5,6.75,9.01M176.77,257.33c-9.76,0-13.13,2.63-10.13,7.88M171.14,283.22c-9.76.75-12.38,3.38-7.88,7.88"/>
              <path class="cls-30" d="M67.58,324.87c15.76-9.01,32.64-6.75,47.28,3.38v24.76h-54.03l6.75-28.14ZM131.74,328.24c14.63-10.13,34.9-9.01,49.53-1.13l3.38,25.89h-54.03l1.13-24.76Z"/>
            </g>
          </g>
          <path class="cls-13" d="M82.21,329.37c-2.25,4.5-1.5,7.88,2.25,10.13M97.97,330.49c-2.25,4.5-1.5,7.88,2.25,10.13M148.62,330.49c3,3.75,2.63,6.75-1.13,9.01M165.51,329.37c3,3.75,2.63,6.75-1.13,9.01"/>
        </g>
        <g>
          <path class="cls-10" d="M76.17,192.71c32.27,12.01,64.54,12.01,96.81,0-13.51,24.76-32.64,40.52-46.15,47.28-2.25,1.5-4.5,1.13-6.75-1.13-21.39-10.13-38.27-29.27-43.9-46.15Z"/>
          <path class="cls-41" d="M82.92,200.58c27.77,18.76,54.78,19.51,81.05,2.25-21.01,13.51-36.4,18.76-46.15,15.76-13.51-3-25.14-9.01-34.9-18.01Z"/>
        </g>
        <g>
          <g>
            <g>
              <path class="cls-18" d="M24.75,110.48C7.93,86.06.3,43.56,8.1,22.07c.45-4.68,3.4-6.83,8.86-6.44,23.31.7,54.38,12.48,72.88,27.47L24.75,110.48Z"/>
              <path class="cls-20" d="M226.17,96.39c13.27-26.52,14.9-69.67,4.19-89.86-1.1-4.58-4.32-6.29-9.67-5.14-22.99,3.93-52.12,19.93-68.35,37.35l73.83,57.65Z"/>
              <path class="cls-35" d="M10.82,27.7c-3.42,17.69,1,47.62,11.56,65.5,11.88-18.67,23.42-31.11,34.61-37.32-15.02-15.23-34.44-26.67-46.17-28.18Z"/>
              <path class="cls-32" d="M228.45,12.48c5.84,17.04,5.63,47.3-2.33,66.47-14.36-16.83-27.52-27.54-39.47-32.14,12.76-17.18,30.39-31.21,41.8-34.33Z"/>
              <path class="cls-44" d="M33.74,72.63c-9.83-7.46.11-15.13,12.09-10.15l10.82,5.06-22.91,5.09Z"/>
              <path class="cls-44" d="M212.01,60.16c8.69-8.75-2.21-14.97-13.38-8.37l-10.01,6.52,23.39,1.85Z"/>
            </g>
            <path class="cls-28" d="M20.53,116.59c-.76-44.15,43.11-82.12,98.76-84.84,57.72-6.36,103.97,22.97,112.92,67.72,14.49,40.86-8.55,77.37-47.02,92.86-29.37,12.52-74.51,15.68-106.5,7.45-40.17-8.82-67.98-40.61-58.16-83.18Z"/>
            <g>
              <path class="cls-42" d="M83.08,37.88c3.61,18.36,3.58,26.39,11.76,26.98,8.1-.57,4.32-24.65,3.84-31.59l-15.6,4.61ZM109.95,31.24c.3,20.92,4.23,43.91,13.49,43.26,10.5.43,12.19-25.28,8.5-44.8l-21.99,1.54ZM149.63,30.55c-1.18,16.37-2.85,28.35,4.18,29.02,7.03.67,11.33-16,10.6-26.42l-14.77-2.6Z"/>
              <g class="cls-33">
                <path class="cls-37" d="M10.29,140.94c13.19-10.06,23.54-10.75,35.41-5.81,14.24,5.94,29.26,6.08,40.6,3.03,12.97-13.49,24.23-17.69,38.1-17.46,16.02-2.22,29.18,4.94,41.2,12.17,15.02.15,26.29-4.05,39.85-8.4,13.34-7.78,26.29-4.05,36.01,3.34l6.88,69.57-236.77,15.79-1.28-72.23Z"/>
              </g>
              <ellipse class="cls-34" cx="49.4" cy="163.43" rx="20.89" ry="12.76" transform="translate(-11.28 3.84) rotate(-4)"/>
              <ellipse class="cls-23" cx="209.14" cy="152.26" rx="20.89" ry="12.76" transform="translate(-10.11 14.96) rotate(-4)"/>
              <path class="cls-38" d="M20.32,114.6c13.37-.2,19.2,3.65,17.5,11.54-5.66,4.3-12.27,5.56-19.82,3.78l2.32-15.32ZM231.18,99.19c-13.27,1.75-18.53,6.41-15.79,13.98,6.18,3.43,12.89,3.72,20.13.86l-4.34-14.84Z"/>
            </g>
            <path class="cls-8" d="M35.93,153.9c-13.39-2.94-25.02-2.9-34.89.11M37.9,165.39c-12.19,3.18-21.54,8.1-28.05,14.76M221.15,140.95c12.85-4.78,24.37-6.36,34.57-4.74M220.8,152.61c12.51,1.45,22.45,5.02,29.83,10.71"/>
          </g>
          <g>
            <ellipse class="cls-25" cx="79.01" cy="127.41" rx="22.05" ry="24.95" transform="translate(-8.7 5.82) rotate(-4)"/>
            <path class="cls-3" d="M57.49,121.35c4.83-22.44,33.69-25.62,42.25-2.95"/>
            <ellipse class="cls-1" cx="81.49" cy="129.56" rx="17.41" ry="20.31" transform="translate(-8.84 6) rotate(-4)"/>
            <ellipse class="cls-39" cx="82.48" cy="127.17" rx="12.53" ry="15.67" transform="translate(-8.67 6.06) rotate(-4)"/>
            <ellipse class="cls-26" cx="74.73" cy="116.08" rx="3.83" ry="3.25" transform="translate(-7.92 5.5) rotate(-4)"/>
            <ellipse class="cls-36" cx="89.24" cy="140.66" rx="2.32" ry="1.51" transform="translate(-9.59 6.57) rotate(-4)"/>
          </g>
          <g>
            <ellipse class="cls-25" cx="173.93" cy="120.77" rx="22.05" ry="24.95" transform="translate(-8 12.43) rotate(-4)"/>
            <path class="cls-3" d="M152.41,114.71c4.83-22.44,33.69-25.62,42.25-2.95"/>
            <ellipse class="cls-31" cx="176.41" cy="122.93" rx="17.41" ry="20.31" transform="translate(-8.15 12.61) rotate(-4)"/>
            <ellipse class="cls-39" cx="177.41" cy="120.53" rx="12.53" ry="15.67" transform="translate(-7.98 12.67) rotate(-4)"/>
            <ellipse class="cls-26" cx="169.65" cy="109.44" rx="3.83" ry="3.25" transform="translate(-7.22 12.1) rotate(-4)"/>
            <ellipse class="cls-36" cx="184.17" cy="134.02" rx="2.32" ry="1.51" transform="translate(-8.9 13.17) rotate(-4)"/>
          </g>
          <path class="cls-9" d="M62.61,92.5c5.85-5.06,12-5.88,18.44-2.45M166.71,84.06c5.9-4.29,12.1-4.34,18.6-.14"/>
          <g>
            <path class="cls-24" d="M118.18,138.63c-.49-6.95,18.04-8.24,18.52-1.3-1.22,4.74-4.14,7.27-8.78,7.59s-7.88-1.78-9.75-6.3Z"/>
            <path class="cls-5" d="M127.93,144.93l.4,5.79"/>
          </g>
          <path class="cls-12" d="M110.22,157.8c7.59,8.78,13.77,8.34,18.52-1.3,6.05,8.88,12.22,8.45,18.52-1.3"/>
        </g>
      </g>
    </g>
  </g>
</svg>