<?xml version="1.0" encoding="UTF-8"?>
<svg id="Layer_2" data-name="Layer 2" xmlns="http://www.w3.org/2000/svg" xmlns:xlink="http://www.w3.org/1999/xlink" viewBox="0 0 275.26 365.22">
  <defs>
    <style>
      .cls-1 {
        fill: url(#radial-gradient);
      }

      .cls-1, .cls-2, .cls-3, .cls-4, .cls-5, .cls-6, .cls-7, .cls-8, .cls-9, .cls-10, .cls-11, .cls-12, .cls-13, .cls-14, .cls-15, .cls-16, .cls-17, .cls-18, .cls-19, .cls-20, .cls-21, .cls-22, .cls-23, .cls-24 {
        stroke: #075078;
      }

      .cls-1, .cls-3, .cls-18, .cls-25 {
        stroke-width: 2.86px;
      }

      .cls-2 {
        fill: url(#linear-gradient-11);
      }

      .cls-2, .cls-26, .cls-4, .cls-27, .cls-28, .cls-7, .cls-10, .cls-11, .cls-15, .cls-29, .cls-30, .cls-16, .cls-31, .cls-32, .cls-19, .cls-33, .cls-25, .cls-20, .cls-34, .cls-21, .cls-22, .cls-23, .cls-24 {
        stroke-linecap: round;
        stroke-linejoin: round;
      }

      .cls-2, .cls-11 {
        stroke-width: 1.06px;
      }

      .cls-3 {
        fill: url(#linear-gradient-21);
      }

      .cls-26 {
        stroke: #e0fff5;
        stroke-width: 5.72px;
      }

      .cls-26, .cls-27, .cls-7, .cls-29, .cls-30, .cls-16, .cls-31, .cls-32, .cls-33, .cls-25, .cls-34 {
        fill: none;
      }

      .cls-4 {
        fill: url(#linear-gradient-5);
      }

      .cls-4, .cls-10, .cls-14, .cls-15, .cls-21, .cls-22, .cls-24 {
        stroke-width: 2.58px;
      }

      .cls-5 {
        fill: url(#linear-gradient-17);
      }

      .cls-5, .cls-6, .cls-8, .cls-9, .cls-12, .cls-13, .cls-17 {
        stroke-miterlimit: 3.61;
      }

      .cls-5, .cls-8, .cls-19 {
        stroke-width: 2.32px;
      }

      .cls-27 {
        stroke: #073450;
        stroke-width: 6.68px;
      }

      .cls-28 {
        fill: url(#linear-gradient-23);
        stroke: #18273e;
        stroke-width: 1.53px;
      }

      .cls-6 {
        fill: #69a7bd;
        stroke-width: 1.89px;
      }

      .cls-7 {
        stroke-width: 30.13px;
      }

      .cls-8 {
        fill: url(#linear-gradient-7);
      }

      .cls-9 {
        fill: url(#linear-gradient-10);
      }

      .cls-9, .cls-13 {
        stroke-width: 1.55px;
      }

      .cls-35 {
        fill: #8adaff;
        opacity: .7;
      }

      .cls-35, .cls-36, .cls-16, .cls-32, .cls-33, .cls-25 {
        isolation: isolate;
      }

      .cls-10 {
        fill: url(#linear-gradient-22);
      }

      .cls-11 {
        fill: url(#linear-gradient-15);
      }

      .cls-37 {
        fill: url(#linear-gradient-24);
      }

      .cls-12 {
        fill: url(#linear-gradient-8);
      }

      .cls-12, .cls-17 {
        stroke-width: 2.15px;
      }

      .cls-36 {
        fill: #75cbff;
        opacity: .35;
      }

      .cls-13 {
        fill: url(#linear-gradient-14);
      }

      .cls-14 {
        fill: url(#linear-gradient-18);
      }

      .cls-15 {
        fill: url(#linear-gradient-3);
      }

      .cls-29 {
        stroke: url(#linear-gradient-9);
      }

      .cls-29, .cls-34 {
        stroke-width: 24.97px;
      }

      .cls-30 {
        stroke: #d7fff3;
      }

      .cls-30, .cls-33 {
        stroke-width: 4.3px;
      }

      .cls-16 {
        opacity: .65;
        stroke-width: .85px;
      }

      .cls-31 {
        stroke: #155c7e;
        stroke-width: 1.72px;
      }

      .cls-38 {
        fill: url(#radial-gradient-2);
      }

      .cls-32 {
        stroke: #4fbaba;
        stroke-width: 2.58px;
      }

      .cls-32, .cls-25 {
        opacity: .5;
      }

      .cls-17 {
        fill: url(#linear-gradient-12);
      }

      .cls-18 {
        fill: url(#linear-gradient-20);
      }

      .cls-19 {
        fill: url(#linear-gradient-16);
      }

      .cls-33 {
        opacity: .45;
        stroke: #c1f8e8;
      }

      .cls-25 {
        stroke: #51bdbd;
      }

      .cls-39 {
        fill: #fff9cf;
      }

      .cls-20 {
        fill: url(#linear-gradient);
      }

      .cls-20, .cls-23 {
        stroke-width: 2.32px;
      }

      .cls-40 {
        fill: #d1fff0;
      }

      .cls-34 {
        stroke: url(#linear-gradient-13);
      }

      .cls-21 {
        fill: url(#linear-gradient-19);
      }

      .cls-22 {
        fill: url(#linear-gradient-6);
      }

      .cls-23 {
        fill: url(#linear-gradient-4);
      }

      .cls-24 {
        fill: url(#linear-gradient-2);
      }
    </style>
    <linearGradient id="linear-gradient" x1="3149.22" y1="-3386.46" x2="3150.16" y2="-3387.31" gradientTransform="translate(-87177.2509 -195587.0115) rotate(8) scale(36.0954 -53.6919)" gradientUnits="userSpaceOnUse">
      <stop offset="0" stop-color="#2b87b0"/>
      <stop offset=".5" stop-color="#1d749e"/>
      <stop offset="1" stop-color="#105777"/>
    </linearGradient>
    <linearGradient id="linear-gradient-2" x1="3183.81" y1="-3414.82" x2="3184.76" y2="-3415.76" gradientTransform="translate(-193947.8999 -165486.0055) rotate(8) scale(67.5887 -40.1758)" gradientUnits="userSpaceOnUse">
      <stop offset="0" stop-color="#b6f5e9"/>
      <stop offset=".48" stop-color="#8ce6d9"/>
      <stop offset="1" stop-color="#5dcac8"/>
    </linearGradient>
    <linearGradient id="linear-gradient-3" x1="3182.76" y1="-3750.26" x2="3183.68" y2="-3751.08" gradientTransform="translate(-201574.7719 -66480.062) rotate(8) scale(65.6576 -10.1637)" xlink:href="#linear-gradient"/>
    <linearGradient id="linear-gradient-4" x1="3117.09" y1="-3369.34" x2="3118.06" y2="-3370.21" gradientTransform="translate(-136453.3186 -163193.1466) rotate(-8) scale(36.0954 -53.6919)" xlink:href="#linear-gradient"/>
    <linearGradient id="linear-gradient-5" x1="3166.85" y1="-3391.93" x2="3167.82" y2="-3392.9" gradientTransform="translate(-230790.8908 -104828.2189) rotate(-8) scale(67.5887 -40.1758)" xlink:href="#linear-gradient-2"/>
    <linearGradient id="linear-gradient-6" x1="3165.26" y1="-3659.83" x2="3166.26" y2="-3660.73" gradientTransform="translate(-210832.5725 -7555.3473) rotate(-8) scale(65.6576 -10.1637)" xlink:href="#linear-gradient"/>
    <linearGradient id="linear-gradient-7" x1="3122.1" y1="-3486.16" x2="3123.05" y2="-3487.03" gradientTransform="translate(-101309.9103 -78448.0355) scale(32.4859 -22.5597)" xlink:href="#linear-gradient"/>
    <linearGradient id="linear-gradient-8" x1="3330.96" y1="-3411.4" x2="3331.92" y2="-3412.27" gradientTransform="translate(102296.9112 -129074.3513) rotate(-180) scale(30.6811 37.9002)" xlink:href="#linear-gradient"/>
    <linearGradient id="linear-gradient-9" x1="3296.75" y1="-3470.85" x2="3297.7" y2="-3471.8" gradientTransform="translate(148825.3518 -85192.9822) rotate(-180) scale(45.1193 24.6095)" xlink:href="#linear-gradient-2"/>
    <linearGradient id="linear-gradient-10" x1="3363.96" y1="-3494.21" x2="3364.92" y2="-3495.07" gradientTransform="translate(78971.3286 -75464.7087) rotate(-180) scale(23.462 21.6573)" xlink:href="#linear-gradient"/>
    <linearGradient id="linear-gradient-11" x1="3120.9" y1="-3379.47" x2="3121.87" y2="-3380.34" gradientTransform="translate(201551.0422 -43907.0935) rotate(-151.2956) scale(49.8403 40.0853)" xlink:href="#linear-gradient"/>
    <linearGradient id="linear-gradient-12" x1="3115.66" y1="-3411.3" x2="3116.62" y2="-3412.17" gradientTransform="translate(-95433.1698 -129074.3513) scale(30.6811 -37.9002)" xlink:href="#linear-gradient"/>
    <linearGradient id="linear-gradient-13" x1="3165.41" y1="-3520.2" x2="3166.37" y2="-3521.15" gradientTransform="translate(-179779.1658 -66858.8311) scale(56.8503 -19.059)" xlink:href="#linear-gradient-2"/>
    <linearGradient id="linear-gradient-14" x1="3082.41" y1="-3493.93" x2="3083.37" y2="-3494.79" gradientTransform="translate(-72087.7347 -75438.5395) scale(23.462 -21.6573)" xlink:href="#linear-gradient"/>
    <linearGradient id="linear-gradient-15" x1="3142.9" y1="-3389.12" x2="3143.87" y2="-3389.99" gradientTransform="translate(-178518.3218 -104878.868) rotate(-10.4794) scale(49.8403 -40.0853)" xlink:href="#linear-gradient"/>
    <linearGradient id="linear-gradient-16" x1="3197.24" y1="-3339.73" x2="3198.19" y2="-3340.69" gradientTransform="translate(-398078.2898 -359933.0408) scale(124.5293 -107.8352)" xlink:href="#linear-gradient-2"/>
    <linearGradient id="linear-gradient-17" x1="3169.94" y1="-3373.27" x2="3170.9" y2="-3374.23" gradientTransform="translate(-194418.2276 -194583.9126) scale(61.3622 -57.7527)" gradientUnits="userSpaceOnUse">
      <stop offset="0" stop-color="#36b3ff"/>
      <stop offset="1" stop-color="#258eea"/>
    </linearGradient>
    <linearGradient id="linear-gradient-18" x1="2917.21" y1="-3432.69" x2="2918.15" y2="-3433.53" gradientTransform="translate(-11475.0474 -121298.5082) rotate(7) scale(9.0239 -34.6697)" xlink:href="#linear-gradient"/>
    <linearGradient id="linear-gradient-19" x1="3162.44" y1="-3535.97" x2="3163.38" y2="-3536.82" gradientTransform="translate(-133338.3433 -85525.1691) rotate(7) scale(45.1861 -19.4228)" xlink:href="#linear-gradient"/>
    <radialGradient id="radial-gradient" cx="3148.08" cy="-3412.4" fx="3148.08" fy="-3412.4" r=".85" gradientTransform="translate(-94823.2735 -144612.0941) rotate(6.3764) scale(36.0494 -39.0287) skewX(1.4147)" gradientUnits="userSpaceOnUse">
      <stop offset="0" stop-color="#ffdb69"/>
      <stop offset=".6" stop-color="#ffc137"/>
      <stop offset="1" stop-color="#f5a017"/>
    </radialGradient>
    <linearGradient id="linear-gradient-20" x1="3121.57" y1="-3378.05" x2="3122.41" y2="-3378.99" gradientTransform="translate(198160.4679 -88281.1083) rotate(88.878) scale(27.0716 -59.1424)" gradientUnits="userSpaceOnUse">
      <stop offset="0" stop-color="#54bcff"/>
      <stop offset=".55" stop-color="#229bf0"/>
      <stop offset="1" stop-color="#1479d4"/>
    </linearGradient>
    <linearGradient id="linear-gradient-21" x1="3121.56" y1="-3378.01" x2="3122.4" y2="-3378.95" gradientTransform="translate(198358.9043 -88258.3751) rotate(88.878) scale(27.0716 -59.1424)" xlink:href="#linear-gradient-20"/>
    <linearGradient id="linear-gradient-22" x1="3209.01" y1="-3329.88" x2="3209.95" y2="-3330.82" gradientTransform="translate(-533629.3446 -595720.8889) rotate(7) scale(187.6963 -158.0529)" xlink:href="#linear-gradient-2"/>
    <radialGradient id="radial-gradient-2" cx="3205.84" cy="-3342.48" fx="3205.84" fy="-3342.48" r=".8" gradientTransform="translate(-429479.5253 -402610.839) rotate(6.3764) scale(149.6397 -105.4703) skewX(.9211)" gradientUnits="userSpaceOnUse">
      <stop offset="0" stop-color="#fffdf4"/>
      <stop offset="1" stop-color="#fcf3df"/>
    </radialGradient>
    <linearGradient id="linear-gradient-23" x1="3152.9" y1="-3461.53" x2="3152.9" y2="-3462.45" gradientTransform="translate(-109328.5387 -112183.0172) rotate(7) scale(38.8026 -28.3586)" gradientUnits="userSpaceOnUse">
      <stop offset="0" stop-color="#262238"/>
      <stop offset="1" stop-color="#472c3c"/>
    </linearGradient>
    <linearGradient id="linear-gradient-24" x1="3118.47" y1="-3600.33" x2="3118.47" y2="-3601.25" gradientTransform="translate(-74193.1615 -64100.4463) rotate(7) scale(26.1692 -15.2027)" gradientUnits="userSpaceOnUse">
      <stop offset="0" stop-color="#fc7180"/>
      <stop offset="1" stop-color="#ea4358"/>
    </linearGradient>
  </defs>
  <g id="paca">
    <g id="panel-hero">
      <g id="hero-welcome">
        <g>
          <g>
            <g>
              <path class="cls-20" d="M87.26,289.65l28.6,3.66-3.08,43.56c-13,5.52-24.92,4-35.74-4.57l10.23-42.65Z"/>
              <path class="cls-31" d="M83.87,311.61c9.03,4.47,19.16,5.77,30.38,3.89"/>
              <g>
                <path class="cls-24" d="M70.12,325.57c14.31-4.25,27.33-2.31,39.08,5.83,7.92,7.65,11.04,16.89,9.37,27.74-21.4,3.9-43.75,1.31-67.06-7.75,1.67-10.84,7.88-19.45,18.61-25.82Z"/>
                <path class="cls-15" d="M53.67,350c20.92,7.65,42.32,10.11,64.19,7.38l-1.71,4.76c-21.24,2.81-42.63.35-64.19-7.38l1.71-4.76Z"/>
                <path class="cls-40" d="M67.91,333.58c7.38-5.69,13.09-6.9,17.13-3.61,2.77,3.12-2,6.66-14.31,10.61-7.26.73-8.2-1.6-2.82-7Z"/>
              </g>
            </g>
            <g>
              <path class="cls-23" d="M145.11,293.31l28.6-3.66,10.23,42.65c-10.83,8.57-22.74,10.1-35.74,4.57l-3.08-43.56Z"/>
              <path class="cls-31" d="M148.5,315.27c10.03,2.03,20.16.74,30.38-3.89"/>
              <g>
                <path class="cls-4" d="M151.71,330.71c12.47-7.68,25.57-9.08,39.33-4.2,9.93,5.36,15.73,13.47,17.41,24.31-19.39,9.12-41.66,12.24-66.81,9.37-1.67-10.84,1.68-20.67,10.07-29.49Z"/>
                <path class="cls-22" d="M143.3,358.32c22.43,2.11,43.74-.89,63.94-9.01l-.2,5c-19.56,8.03-40.87,11.03-63.94,9.01l.2-5Z"/>
                <path class="cls-40" d="M152.01,338.96c5.37-7.32,10.49-9.91,15.38-7.77,3.61,2.3.09,6.9-10.55,13.79-6.76,2.52-8.37.52-4.83-6.02Z"/>
              </g>
            </g>
          </g>
          <rect class="cls-8" x="114.24" y="198.56" width="32.49" height="20.53" rx="6.89" ry="6.89"/>
          <g>
            <ellipse class="cls-12" cx="83.84" cy="235.66" rx="15.34" ry="17.25"/>
            <path class="cls-7" d="M82.93,236.48c-17.45,18.62-32.49,15.06-45.12-10.68"/>
            <path class="cls-29" d="M82.93,236.48c-17.45,18.62-32.49,15.06-45.12-10.68"/>
            <path class="cls-33" d="M82.93,236.48c-17.45,18.62-32.49,15.06-45.12-10.68"/>
            <ellipse class="cls-9" cx="34.21" cy="220.06" rx="11.73" ry="9.86"/>
            <g>
              <path class="cls-2" d="M40.91,222.3c-4.37,7.13-11.15,6.55-11.15,6.55-5.9-.57-11.67-3.36-17.31-8.37l-10.4-10.07c-3.57-4.17-.25-7.01,3.33-4.35l9.77,6.69-11.7-10.76c-3.57-4.17.08-7.59,3.98-4.01l11.38,9.82-11.68-12.27c-3.23-4.76.73-7.25,4.63-3.66l12.67,12.03-8.42-10.55c-3.57-4.17,1.39-6.9,4.95-2.73l14.93,15.51.06-6.07c-.29-3.97,3.03-6.8,6.27-3.56,2.93,2.31.91,7.35.86,11.91,0,0,2.18,6.77-2.2,13.9Z"/>
              <path class="cls-16" d="M22.07,211.05c6.11,1.19,9.91,4.47,11.38,9.82"/>
            </g>
          </g>
          <g>
            <ellipse class="cls-17" cx="174.19" cy="231.96" rx="15.34" ry="17.25"/>
            <path class="cls-7" d="M175.1,232.78c16.24,19.16,35.19,22.45,56.85,9.86"/>
            <path class="cls-34" d="M175.1,232.78c16.24,19.16,35.19,22.45,56.85,9.86"/>
            <path class="cls-33" d="M175.1,232.78c16.24,19.16,35.19,22.45,56.85,9.86"/>
            <ellipse class="cls-13" cx="243.68" cy="240.17" rx="11.73" ry="9.86"/>
            <g>
              <path class="cls-11" d="M232.53,226.33c1.38-4.34,1.03-9.76,4.54-11.04,4.1-2.06,6.36,1.66,4.84,5.34l-1.84,5.79,19.04-10.07c4.69-2.85,8.54,1.3,3.85,4.14l-11.3,7.39,15.8-7.46c4.83-2.19,7.81,1.42,3.26,4.93l-14.94,8,13.88-5.77c4.83-2.19,7.22,2.2,2.53,5.05l-14.48,6.56,11.38-3.29c4.23-1.4,6.49,2.33,1.8,5.17l-13.02,6.31c-6.92,3-13.27,3.84-19.05,2.54,0,0-6.61-1.57-8.54-9.71s2.26-13.89,2.26-13.89Z"/>
              <path class="cls-16" d="M237.8,241.19c3.08-4.63,7.7-6.55,13.88-5.77"/>
            </g>
          </g>
          <g>
            <path class="cls-19" d="M71.83,230.59c.6-10.4,7.22-16.43,19.85-18.07,25.87-2.74,51.74-2.74,77.61,0,13.23,1.64,20.45,8.21,21.66,19.71l1.8,47.64c-.6,14.78-8.12,23.27-22.56,25.46-26.47,4.38-52.94,4.38-79.41,0-14.44-2.19-21.96-10.68-22.56-25.46l3.61-49.28Z"/>
            <path class="cls-30" d="M79.95,229.77c2.41-6.57,8.12-9.86,17.15-9.86h55.95"/>
            <path class="cls-32" d="M74.53,259.34c-1.8,23,4.51,36.68,18.95,41.06,24.67,6.02,50.23,6.02,76.7,0"/>
            <rect class="cls-5" x="95.29" y="233.06" width="61.36" height="52.56" rx="7.75" ry="7.75"/>
            <path class="cls-35" d="M100.7,237.17h38.8l-38.8,36.96v-36.96Z"/>
            <path class="cls-36" d="M103.41,282.34l47.83-41.06,1.8,18.89-23.46,23-26.17-.82Z"/>
            <ellipse class="cls-6" cx="171.99" cy="242.09" rx="8.12" ry="8.21"/>
          </g>
          <g>
            <g>
              <g>
                <path class="cls-14" d="M152.38,32.65l3.58.4c1.48.17,2.52,1.54,2.31,3.06l-3.48,25.79c-.21,1.53-1.58,2.63-3.06,2.46l-3.58-.4c-1.48-.17-2.52-1.54-2.31-3.06l3.48-25.79c.21-1.53,1.58-2.63,3.06-2.46Z"/>
                <path class="cls-21" d="M126.06,72.73c1.06-12.35,9.31-17.35,24.75-15,15.61,1.12,22.28,7.79,20.03,20l-44.78-5Z"/>
                <path class="cls-1" d="M158.39,1.54c9.89,1.11,16.74,10.66,15.3,21.35s-10.63,18.45-20.52,17.34c-9.89-1.11-16.74-10.66-15.3-21.35S148.5.43,158.39,1.54Z"/>
                <ellipse class="cls-39" cx="150.51" cy="12.81" rx="6.51" ry="5.4" transform="translate(110.27 158.4) rotate(-79.42)"/>
              </g>
              <ellipse class="cls-18" cx="38.82" cy="133.1" rx="26.96" ry="13.51" transform="translate(-98.44 152.73) rotate(-81.88)"/>
              <ellipse class="cls-3" cx="239.45" cy="155.52" rx="26.96" ry="13.51" transform="translate(51.65 370.6) rotate(-81.88)"/>
              <path class="cls-10" d="M51.08,96.14c3.85-19.52,16.64-29,38.38-28.44,40.07-.51,79.48,3.9,118.23,13.21,21.25,4.24,31.14,16.26,29.69,36.04l-9.57,70.93c-3.76,18.9-14.77,28.58-33.01,29.04-43.65.11-86.65-4.7-128.98-14.41-17.58-4.46-25.69-16.27-24.31-35.44l9.57-70.93Z"/>
              <path class="cls-26" d="M60.16,96.22c4.64-11.95,14.21-17.74,28.71-17.36,39.56-1.19,79.52,3.59,119.89,14.33"/>
              <path class="cls-38" d="M68.89,105.61c2.85-12.15,11.14-17.46,24.88-15.92,35.29-1.04,69.93,2.83,103.9,11.61,13.48,3.38,19.95,11.58,19.41,24.61l-6.96,51.58c-2.5,14.06-10.74,21.24-24.73,21.55-35.81.36-71.04-3.58-105.69-11.81-14.51-4.74-20.6-13.52-18.26-26.35l7.46-55.27Z"/>
              <path class="cls-25" d="M47.01,166.75c2.29,18.96,11.8,29.37,28.52,31.24,39.26,10,80.25,13.95,122.95,11.87"/>
            </g>
            <path class="cls-27" d="M88.58,134.92c3.27-15.22,8.53-20.55,15.8-16,6.92,2.64,10.01,8.91,9.28,18.8"/>
            <path class="cls-27" d="M165.6,143.53c3.27-15.22,8.53-20.55,15.8-16,6.92,2.64,10.01,8.91,9.28,18.8"/>
            <g>
              <path class="cls-28" d="M118.21,157.87c11.71,7.54,23.99,8.6,36.85,3.18,2.14,2.11.84,7.26-3.9,15.46-11.21,11.21-21.19,11.03-29.93-.54-4.2-4.83-5.2-10.87-3.01-18.1Z"/>
              <path class="cls-37" d="M122.12,176.07c9.35-6.44,18.01-5.47,25.97,2.9-8.33,7.8-16.04,8.8-23.14,3.02l-2.84-5.93Z"/>
            </g>
          </g>
        </g>
      </g>
    </g>
  </g>
</svg>