<?xml version="1.0" encoding="UTF-8"?>
<svg id="Layer_2" data-name="Layer 2" xmlns="http://www.w3.org/2000/svg" xmlns:xlink="http://www.w3.org/1999/xlink" viewBox="0 0 338.87 446.59">
  <defs>
    <style>
      .cls-1 {
        fill: url(#radial-gradient-10);
      }

      .cls-2 {
        stroke: #ffdda0;
        stroke-width: .99px;
      }

      .cls-2, .cls-3, .cls-4, .cls-5, .cls-6, .cls-7, .cls-8, .cls-9, .cls-10, .cls-11, .cls-12, .cls-13, .cls-14, .cls-15, .cls-16, .cls-17, .cls-18 {
        stroke-linecap: round;
      }

      .cls-2, .cls-3, .cls-4, .cls-5, .cls-6, .cls-7, .cls-9, .cls-10, .cls-11, .cls-12, .cls-13, .cls-14, .cls-15, .cls-19, .cls-17, .cls-18 {
        fill: none;
      }

      .cls-2, .cls-5, .cls-7 {
        stroke-miterlimit: 3;
      }

      .cls-3 {
        stroke: #3b2219;
        stroke-width: 4.06px;
      }

      .cls-3, .cls-8, .cls-9, .cls-11, .cls-13, .cls-15, .cls-16, .cls-18 {
        stroke-linejoin: round;
      }

      .cls-20 {
        fill: url(#linear-gradient-15);
      }

      .cls-21 {
        fill: url(#linear-gradient-13);
      }

      .cls-4 {
        stroke: #b698c7;
        stroke-width: .99px;
      }

      .cls-4, .cls-10, .cls-14, .cls-19 {
        stroke-miterlimit: 3;
      }

      .cls-22 {
        fill: url(#linear-gradient-2);
      }

      .cls-23 {
        fill: url(#radial-gradient-9);
      }

      .cls-5 {
        stroke: #b887e0;
        stroke-width: 1.8px;
      }

      .cls-5, .cls-6, .cls-9, .cls-12, .cls-24, .cls-15, .cls-17, .cls-25, .cls-26 {
        isolation: isolate;
      }

      .cls-5, .cls-17 {
        opacity: .45;
      }

      .cls-27 {
        fill: url(#linear-gradient-10);
      }

      .cls-28 {
        fill: url(#linear-gradient-12);
      }

      .cls-6 {
        opacity: .36;
        stroke: #1e1e1e;
        stroke-width: .85px;
      }

      .cls-6, .cls-12, .cls-17 {
        stroke-miterlimit: 3;
      }

      .cls-7 {
        stroke: #b17bda;
      }

      .cls-7, .cls-11 {
        stroke-width: 1.08px;
      }

      .cls-8 {
        fill: url(#radial-gradient-3);
        stroke: url(#radial-gradient-4);
      }

      .cls-8, .cls-16 {
        stroke-width: 4.49px;
      }

      .cls-29 {
        fill: url(#radial-gradient-14);
      }

      .cls-9 {
        stroke-width: 1.21px;
      }

      .cls-9, .cls-15 {
        opacity: .65;
        stroke: #eaa47d;
      }

      .cls-30 {
        fill: #831c23;
      }

      .cls-10 {
        stroke: #c698f1;
        stroke-width: 1.08px;
      }

      .cls-11 {
        stroke: #ac77d8;
      }

      .cls-31 {
        fill: url(#linear-gradient-4);
      }

      .cls-32 {
        fill: url(#radial-gradient-5);
      }

      .cls-33 {
        fill: url(#radial-gradient);
      }

      .cls-34 {
        fill: url(#linear-gradient-3);
      }

      .cls-35 {
        fill: #ffcb70;
      }

      .cls-36 {
        fill: url(#linear-gradient-5);
      }

      .cls-37 {
        fill: #f5eaf7;
      }

      .cls-38 {
        fill: url(#radial-gradient-11);
      }

      .cls-39 {
        fill: url(#linear-gradient-8);
      }

      .cls-12 {
        opacity: .42;
        stroke: #4b4947;
        stroke-width: 1.08px;
      }

      .cls-13 {
        stroke: #3b302a;
        stroke-width: 3.41px;
      }

      .cls-40 {
        fill: url(#radial-gradient-8);
      }

      .cls-41 {
        fill: url(#radial-gradient-2);
      }

      .cls-42 {
        fill: url(#linear-gradient-14);
      }

      .cls-43 {
        fill: #fffaf2;
      }

      .cls-24 {
        fill: #ed946e;
        opacity: .24;
      }

      .cls-44 {
        fill: url(#linear-gradient-7);
      }

      .cls-45 {
        fill: url(#linear-gradient-9);
      }

      .cls-46 {
        fill: url(#linear-gradient-11);
      }

      .cls-47 {
        fill: url(#radial-gradient-12);
      }

      .cls-48 {
        fill: url(#linear-gradient-6);
      }

      .cls-14 {
        stroke: #fff8fd;
        stroke-width: 2.42px;
      }

      .cls-15 {
        stroke-width: 1.21px;
      }

      .cls-19 {
        stroke: #e8dfec;
        stroke-width: .76px;
      }

      .cls-16 {
        fill: url(#radial-gradient-6);
        stroke: url(#radial-gradient-7);
      }

      .cls-17 {
        stroke: #454343;
        stroke-width: 1.35px;
      }

      .cls-49 {
        fill: url(#linear-gradient-16);
      }

      .cls-18 {
        stroke: #f09570;
        stroke-width: 2.51px;
      }

      .cls-50 {
        fill: url(#radial-gradient-13);
      }

      .cls-51 {
        fill: url(#linear-gradient);
      }

      .cls-25 {
        fill: #ab75d6;
        opacity: .25;
      }

      .cls-52 {
        fill: #ecd7fc;
      }

      .cls-26 {
        fill: #494746;
        opacity: .17;
      }
    </style>
    <radialGradient id="radial-gradient" cx="1386.26" cy="-1517.25" fx="1386.26" fy="-1517.25" r="1.02" gradientTransform="translate(-38538.3914 -77696.1499) rotate(12.0295) scale(39 -45)" gradientUnits="userSpaceOnUse">
      <stop offset="0" stop-color="#ffd1a8"/>
      <stop offset=".65" stop-color="#ffc097"/>
      <stop offset="1" stop-color="#ffad86"/>
    </radialGradient>
    <linearGradient id="linear-gradient" x1="1384.23" y1="-1535.4" x2="1385.42" y2="-1536.59" gradientTransform="translate(-41504.294 -53547.5988) rotate(12.0295) scale(37.5 -28.7)" gradientUnits="userSpaceOnUse">
      <stop offset="0" stop-color="#fffdfa"/>
      <stop offset="1" stop-color="#ece5f2"/>
    </linearGradient>
    <linearGradient id="linear-gradient-2" x1="1396.9" y1="-1522.81" x2="1397.85" y2="-1524.01" gradientTransform="translate(-63041.3452 -72642.9096) rotate(12.0295) scale(55.0761 -38.2662)" gradientUnits="userSpaceOnUse">
      <stop offset="0" stop-color="#ab6be7"/>
      <stop offset=".55" stop-color="#9f58e2"/>
      <stop offset="1" stop-color="#9751d6"/>
    </linearGradient>
    <radialGradient id="radial-gradient-2" cx="1317.51" cy="-1517.77" fx="1317.51" fy="-1517.77" r="1.02" gradientTransform="translate(42203.5124 -74089.5554) rotate(172.4708) scale(39 45)" xlink:href="#radial-gradient"/>
    <linearGradient id="linear-gradient-3" x1="1312.73" y1="-1536.21" x2="1313.93" y2="-1537.41" gradientTransform="translate(43265.4629 -49782.7383) rotate(172.4708) scale(37.5 28.7)" xlink:href="#linear-gradient"/>
    <linearGradient id="linear-gradient-4" x1="1348.21" y1="-1523.42" x2="1349.17" y2="-1524.62" gradientTransform="translate(66234.4202 -67129.2788) rotate(172.4708) scale(55.0761 38.2662)" xlink:href="#linear-gradient-2"/>
    <linearGradient id="linear-gradient-5" x1="1403.25" y1="-1497.74" x2="1404.2" y2="-1498.94" gradientTransform="translate(-169646.5573 -211851.7859) rotate(5) scale(133.675 -131.1609)" gradientUnits="userSpaceOnUse">
      <stop offset="0" stop-color="#d1a7f1"/>
      <stop offset=".55" stop-color="#c79aee"/>
      <stop offset="1" stop-color="#bd8be9"/>
    </linearGradient>
    <radialGradient id="radial-gradient-3" cx="1481.42" cy="-1513.25" fx="1481.42" fy="-1513.25" r="1.02" gradientTransform="translate(27328.7021 -114219.8727) rotate(154.8188) scale(49.5 60.75)" gradientUnits="userSpaceOnUse">
      <stop offset="0" stop-color="#ffdab2"/>
      <stop offset=".6" stop-color="#ffc597"/>
      <stop offset="1" stop-color="#f9ac7d"/>
    </radialGradient>
    <radialGradient id="radial-gradient-4" cx="1481.42" cy="-1513.25" fx="1481.42" fy="-1513.25" r="1.02" xlink:href="#radial-gradient-3"/>
    <radialGradient id="radial-gradient-5" cx="1360.47" cy="-1496.27" fx="1360.47" fy="-1496.27" r=".99" gradientTransform="translate(-114337.5676 -18910.9708) rotate(-44.1812) scale(50.5131 -62.4)" xlink:href="#radial-gradient-3"/>
    <linearGradient id="linear-gradient-6" x1="1479.01" y1="-1524.15" x2="1480.21" y2="-1525.35" gradientTransform="translate(50765.8266 -86492.4215) rotate(161.5719) scale(51 43.4423)" gradientUnits="userSpaceOnUse">
      <stop offset="0" stop-color="#d2a7f4"/>
      <stop offset="1" stop-color="#b782e5"/>
    </linearGradient>
    <radialGradient id="radial-gradient-6" cx="1369.27" cy="-1512.59" fx="1369.27" fy="-1512.59" gradientTransform="translate(-30399.2328 -109806.5141) rotate(20.8387) scale(49.5 -60.75)" xlink:href="#radial-gradient-3"/>
    <radialGradient id="radial-gradient-7" cx="1369.27" cy="-1512.59" fx="1369.27" fy="-1512.59" r="1.02" gradientTransform="translate(-30399.2328 -109806.5141) rotate(20.8387) scale(49.5 -60.75)" xlink:href="#radial-gradient-3"/>
    <radialGradient id="radial-gradient-8" cx="1464.7" cy="-1524.55" fx="1464.7" fy="-1524.55" r=".99" gradientTransform="translate(118076.9829 -25497.9519) rotate(-140.1613) scale(50.5131 62.4)" xlink:href="#radial-gradient-3"/>
    <linearGradient id="linear-gradient-7" x1="1370.48" y1="-1523.26" x2="1371.68" y2="-1524.45" gradientTransform="translate(-41572.6542 -86532.1133) rotate(20.8387) scale(51 -43.4423)" xlink:href="#linear-gradient-6"/>
    <radialGradient id="radial-gradient-9" cx="1341.9" cy="-1546.12" fx="1341.9" fy="-1546.12" r="1.02" gradientTransform="translate(-49775.5249 -29705.9626) rotate(-3) scale(36 -21)" xlink:href="#radial-gradient-3"/>
    <linearGradient id="linear-gradient-8" x1="1377.94" y1="-1515.75" x2="1379.14" y2="-1516.95" gradientTransform="translate(-64695.2415 -101940.9926) rotate(9) scale(57.9641 -59.7543)" gradientUnits="userSpaceOnUse">
      <stop offset="0" stop-color="#343434"/>
      <stop offset="1" stop-color="#222"/>
    </linearGradient>
    <linearGradient id="linear-gradient-9" x1="1370.9" y1="-1519.93" x2="1372.1" y2="-1521.13" gradientTransform="translate(-54493.5597 -89201.243) rotate(9) scale(49.6028 -52.3299)" xlink:href="#linear-gradient-8"/>
    <linearGradient id="linear-gradient-10" x1="1301.67" y1="-1534.88" x2="1302.87" y2="-1536.08" gradientTransform="translate(-19014.9854 -60296.5535) rotate(9) scale(21.7296 -36.8707)" gradientUnits="userSpaceOnUse">
      <stop offset="0" stop-color="#ff9fc0"/>
      <stop offset=".5" stop-color="#fa80ad"/>
      <stop offset="1" stop-color="#e65b92"/>
    </linearGradient>
    <linearGradient id="linear-gradient-11" x1="1335.71" y1="-1558.24" x2="1336.9" y2="-1559.44" gradientTransform="translate(-33052.9554 -44797.7052) rotate(9) scale(29.8462 -25.0652)" xlink:href="#linear-gradient-10"/>
    <linearGradient id="linear-gradient-12" x1="1407.11" y1="-1498.35" x2="1408.13" y2="-1499.54" gradientTransform="translate(-186893.5209 -236124.6902) rotate(9) scale(157.4953 -136.1196)" gradientUnits="userSpaceOnUse">
      <stop offset="0" stop-color="#383838"/>
      <stop offset=".65" stop-color="#292929"/>
      <stop offset="1" stop-color="#222"/>
    </linearGradient>
    <radialGradient id="radial-gradient-10" cx="1332.73" cy="-1539.9" fx="1332.73" fy="-1539.9" r="1.02" gradientTransform="translate(-29852.9645 -57609.0667) rotate(9) scale(28.9587 -33.9966)" xlink:href="#radial-gradient"/>
    <linearGradient id="linear-gradient-13" x1="1085.18" y1="-1624.5" x2="1086.38" y2="-1625.69" gradientTransform="translate(-4938.0938 -22588.2745) rotate(9) scale(7.8333 -13.3333)" gradientUnits="userSpaceOnUse">
      <stop offset="0" stop-color="#ffab82"/>
      <stop offset="1" stop-color="#ffc29d"/>
    </linearGradient>
    <radialGradient id="radial-gradient-11" cx="1322.11" cy="-1534.48" fx="1322.11" fy="-1534.48" r="1.02" gradientTransform="translate(-24264.674 -62169.8114) rotate(9) scale(25.6818 -37.5953)" xlink:href="#radial-gradient"/>
    <linearGradient id="linear-gradient-14" x1="1133.91" y1="-1585.56" x2="1135.11" y2="-1586.76" gradientTransform="translate(-5323.2148 -30336.2405) rotate(9) scale(9.0525 -18.4223)" xlink:href="#linear-gradient-13"/>
    <radialGradient id="radial-gradient-12" cx="1404.14" cy="-1499.78" fx="1404.14" fy="-1499.78" r="1.02" gradientTransform="translate(-151530.4197 -215671.0114) rotate(9) scale(130.7356 -126.2603)" xlink:href="#radial-gradient"/>
    <radialGradient id="radial-gradient-13" cx="1306.04" cy="-1561.84" fx="1306.04" fy="-1561.84" r=".6" gradientTransform="translate(-32213.5632 -27960.0735) scale(24.75 -18)" gradientUnits="userSpaceOnUse">
      <stop offset="0" stop-color="#ff91a0" stop-opacity=".73"/>
      <stop offset=".7" stop-color="#ffa09e" stop-opacity=".55"/>
      <stop offset="1" stop-color="#ffb19c" stop-opacity=".15"/>
    </radialGradient>
    <radialGradient id="radial-gradient-14" cx="1303.13" cy="-1561.79" fx="1303.13" fy="-1561.79" r=".6" gradientTransform="translate(-31049.3715 -27966.4799) scale(24 -18)" xlink:href="#radial-gradient-13"/>
    <linearGradient id="linear-gradient-15" x1="1405.8" y1="-1500.85" x2="1406.82" y2="-1502.05" gradientTransform="translate(-176154.3413 -202901.4172) rotate(9) scale(146.4022 -115.1533)" xlink:href="#linear-gradient-12"/>
    <linearGradient id="linear-gradient-16" x1="1308.06" y1="-1573.69" x2="1308.06" y2="-1574.89" gradientTransform="translate(-34326.711 -20662.6943) rotate(-3) scale(25.5 -14.3644)" gradientUnits="userSpaceOnUse">
      <stop offset="0" stop-color="#ff6b6c"/>
      <stop offset="1" stop-color="#ef3d4e"/>
    </linearGradient>
  </defs>
  <g id="zia">
    <g id="panel-pose-celebrate">
      <g id="pose-celebrate-editable">
        <g>
          <g>
            <g>
              <g>
                <path class="cls-33" d="M99.29,332.63l38.41,13.69-17.64,43.99c-13.63.77-25.85-3.67-36.65-13.32l15.88-44.37Z"/>
                <path class="cls-24" d="M93.29,347.88c11.05,8.48,23.62,12.69,37.71,12.63l4-10.17-37.02-11.56-4.69,9.1Z"/>
                <path class="cls-51" d="M84.91,369.97c12.35,8.14,25.27,12.12,38.78,11.94l-10.01,25.42c-12.12,2.31-25.36-.2-39.72-7.54l10.94-29.81Z"/>
                <path class="cls-19" d="M84.53,371.73c11.17,7.89,23.81,11.81,37.9,11.75"/>
              </g>
              <g>
                <path class="cls-22" d="M78.29,392.43c9.91-3.4,22.33,2.92,22.78,9.45,4.65,4.05,9.39,4.76,14.24,2.12,2.76,4.26.71,13.92-.47,23.77.39,11.1-21.12,12.95-40.26,7.95-14.93-3.18-28.43-8.81-24.98-16.34,4.38-11.92,13.78-17.27,21.74-20.16l6.96-6.78Z"/>
                <path class="cls-37" d="M51.03,416.93c11.87,8.96,40.48,16.89,61.3,13.98,1.76.37,2.39,1.73,1.89,4.08-1.5,7.03-22.64,7.11-39.83,1.61-16.69-3.56-28.43-8.81-25.36-14.59l2-5.08Z"/>
                <path class="cls-4" d="M49.34,424.84c12.18,11.78,45.94,17.14,62.18,14.17"/>
                <path class="cls-14" d="M74.34,398.02c7.99-.13,15,2.89,21.02,9.07M69.89,401.66c7.99-.13,14.76,2.53,20.33,8.01"/>
                <path class="cls-10" d="M80.92,393c6.82-.38,12.19,1.68,16.13,6.19"/>
              </g>
            </g>
            <g>
              <g>
                <path class="cls-41" d="M235.93,384.26c-11.52,8.77-24.05,12.24-37.58,10.4l-14.13-45.24,39.36-10.64,12.35,45.48Z"/>
                <path class="cls-24" d="M224.4,345.01l-37.82,8.62,3.19,10.45c14.04,1.16,26.91-2.05,38.59-9.63l-3.97-9.44Z"/>
                <path class="cls-34" d="M243.56,407.71c-14.88,6.19-28.28,7.66-40.19,4.41l-7.98-26.12c13.45,1.24,26.65-1.71,39.6-8.86l8.57,30.58Z"/>
                <path class="cls-19" d="M196.51,387.65c14.04,1.16,26.95-1.75,38.71-8.74"/>
              </g>
              <g>
                <path class="cls-31" d="M246.23,407.36c7.71,3.51,16.67,9.57,20.09,21.8,2.84,7.78-11.05,12.33-26.19,14.33-19.47,3.48-40.77-.05-39.51-11.08-.4-9.91-1.7-19.71,1.39-23.74,4.63,3.01,9.41,2.68,14.36-.99.96-6.47,13.84-11.79,23.45-7.63l6.4,7.31Z"/>
                <path class="cls-37" d="M266.67,431.83c2.6,6-9.51,10.32-26.43,12.55-17.57,4.13-38.64,2.39-39.58-4.73-.31-2.37.42-3.68,2.2-3.91,20.53,4.53,49.68-1.13,62.21-9.13l1.6,5.22Z"/>
                <path class="cls-4" d="M203.04,443.87c15.96,4.23,50.03,1.54,63.1-9.25"/>
                <path class="cls-14" d="M221.65,413.32c6.5-5.69,13.72-8.15,21.67-7.39M226.57,416.3c5.98-5.02,12.95-7.15,20.9-6.39"/>
                <path class="cls-10" d="M220.59,405.31c4.28-4.19,9.8-5.82,16.56-4.91"/>
              </g>
            </g>
          </g>
          <g>
            <g>
              <g>
                <path class="cls-36" d="M131.71,195.61c21.2-5.36,49.76-1.96,68,5.95,13.26,2.96,25.75,14.87,31.57,30.71l-10.4,26.14c2.36,24.55,9.54,55.83,16.45,79.88,1.48,3.74.07,6.02-4.21,6.84-46.14,12.19-109.59,5.74-150.39-12.26-4.67-1.61-5.63-4.4-2.87-8.37,13.32-28.59,24.38-51.96,33.81-77.28l-3.76-29.18,21.8-22.44Z"/>
                <path class="cls-25" d="M111.73,248.86c-3.51,19.53-12.39,38.58-20.38,57.72,12.69-21.43,29.86-42.47,35.9-59.97l-15.52,2.25Z"/>
                <path class="cls-5" d="M107.14,311.57c-1.54,10.68-2.37,20.23-2.5,28.63M212.06,318.04c.9,10.3,1.51,20.57,1.81,30.81"/>
                <path class="cls-7" d="M80.45,328.17c39.75,19.71,106.54,29.16,153.81,14.36"/>
              </g>
              <g>
                <g>
                  <ellipse class="cls-43" cx="170.01" cy="242.24" rx="12.57" ry="8.08" transform="translate(-86.13 390.49) rotate(-85)"/>
                  <ellipse class="cls-43" cx="180.37" cy="251.24" rx="12.57" ry="8.08" transform="translate(-51.89 47.01) rotate(-13)"/>
                  <ellipse class="cls-43" cx="175" cy="263.88" rx="8.08" ry="12.57" transform="translate(-110.91 127.82) rotate(-31)"/>
                  <ellipse class="cls-43" cx="161.33" cy="262.68" rx="12.57" ry="8.08" transform="translate(-142.76 212.1) rotate(-49)"/>
                  <ellipse class="cls-43" cx="158.24" cy="249.31" rx="8.08" ry="12.57" transform="translate(-133.08 297.56) rotate(-67)"/>
                </g>
                <circle class="cls-35" cx="168.99" cy="253.87" r="7.81"/>
                <path class="cls-2" d="M164.91,249.01c3.19-2.12,6.17-1.86,8.95.78"/>
              </g>
            </g>
            <g>
              <path class="cls-8" d="M116.02,191.71l-20.79-4.12c-10.64-2.94-23.56-11.42-38.76-25.44l-13.58,13.33c11.44,14.47,26.41,26.62,44.92,36.44l19.12,6.89,9.09-27.1Z"/>
              <g>
                <path class="cls-32" d="M46.69,182.93c-5.99,3.22-13.9,1.78-20.44-2.27l-16.48-2.22c-6.59-1.42-5.84-7.35.76-7.26l12.56-.48-19.07-6.22c-5.92-2.07-5.17-8,1.42-6.59l19.76,4.25-19.6-14.81c-5.23-4.04-1.84-9.93,4.06-6.55l20.29,12.84-16.26-18.07c-5.21-5.36-.52-9.92,5.36-5.21l20.24,16.8-1.13-13.23c-.56-7.27,7.37-7.16,7.94-1.21l3.1,13.92c1.92,4.65,8.48,7.39,9.71,14.01.42,1.33.54,2.81.47,4.34-.3,6.8-4.23,12.92-10.08,16.4l-2.6,1.54Z"/>
                <path class="cls-15" d="M31.62,174.13c1.44-8.35,6.36-13.56,14.76-15.64M34.26,174.17c3.5,1.81,6.8,2.08,9.9.8"/>
              </g>
              <path class="cls-48" d="M145.45,193.59c-10.41-.95-21.11-2.75-32.09-5.4l-15.62-4.26c-5.87,8.9-9,19.41-9.38,31.52,9.28,7.01,18.27,12.21,26.98,15.62,4.92,1.52,8.9-.76,11.93-6.81l10.79-13.06,7.39-17.61Z"/>
              <path class="cls-11" d="M98.02,187.62c-3.98,8.9-6.35,17.89-7.1,26.98"/>
            </g>
            <g>
              <path class="cls-16" d="M224.08,203.77l20.42-5.68c10.39-3.73,22.63-13.17,36.72-28.31l14.55,12.27c-10.31,15.3-24.32,28.54-42.03,39.74l-18.54,8.32-11.12-26.33Z"/>
              <g>
                <path class="cls-40" d="M294.02,184.12c6.22,2.75,13.99.73,20.21-3.82l16.27-3.46c6.46-1.91,5.27-7.77-1.31-7.18l-12.56.47,18.54-7.64c5.74-2.51,4.55-8.37-1.91-6.46l-19.38,5.73,18.43-16.25c4.91-4.42,1.08-10.05-4.54-6.22l-19.26,14.34,14.84-19.25c4.79-5.74-.23-9.93-5.74-4.79l-18.91,18.29.13-13.27c0-7.3-7.89-6.58-8.01-.6l-2.04,14.11c-1.56,4.78-7.9,8.01-8.62,14.71-.63,2.67-1.07,9.96,2.5,14.55s11.36,6.74,11.36,6.74Z"/>
                <path class="cls-9" d="M308.38,174.2c-2.07-8.21-7.37-13.04-15.9-14.48M305.74,174.44c-3.35,2.07-6.62,2.59-9.81,1.55"/>
              </g>
              <path class="cls-44" d="M197.69,200.89c10.44-.51,21.21-1.86,32.29-4.05l15.79-3.6c5.49,9.14,8.17,19.77,8.04,31.89-9.56,6.61-18.77,11.44-27.61,14.48-4.98,1.31-8.86-1.13-11.63-7.31l-10.24-13.51-6.64-17.9Z"/>
              <path class="cls-11" d="M245.33,196.92c3.6,9.06,5.59,18.14,5.96,27.26"/>
            </g>
            <g>
              <path class="cls-23" d="M148.27,183.08l1.08,20.63c14.66,5.23,29.01,4.48,43.05-2.26l-1.08-20.63-43.05,2.26Z"/>
              <g>
                <g>
                  <path class="cls-39" d="M70.34,76.57c-7.01,9.8-20.13,12.27-27.27,5.68-12.23,2.61-23.39-7.34-21.84-17.1-5.97-8.22-.5-25.54,10.52-31.98,1.83-11.53,12.85-17.97,23.77-18.06,11.21-1.86,22.64,6.31,27.17,17.94,9.34,4.21,9.89,17.93,2.42,24.93.23,10.04-6.64,18.95-14.76,18.58Z"/>
                  <path class="cls-45" d="M222.12,19.68c1.69-10.64,11.96-18.11,22.14-19.23,13.12-2.47,23.67,5.57,25.35,12.2,10.08,5.23,12.83,16.58,8.34,27.69,2,10.32-6.31,22.64-16.35,22.87-12.37,3.5-21.01-5.15-23.29-13.69-10.5-2.57-17.08-12.71-17.31-22.75l1.12-7.1Z"/>
                  <path class="cls-17" d="M33.57,38.92c4.64-10.18,12.82-15.85,24.52-17.03M29.68,69.22c5.85,5.17,12.74,5.66,20.68,1.46M235.52,15.44c6.73-8.03,13.55-10.89,20.46-8.58M253.99,53.83c9.56.91,15.53-2.39,17.93-9.89"/>
                  <path class="cls-27" d="M64,59.2c-2.14-9.43,3.42-15.83,9.91-16.62-3.45-6.91,4.3-15.69,10.65-15.59,8.26-.51,10.41,8.92,5.88,14.57l-13.55,22.41c-5.98,9.06-14.43,4.99-12.88-4.77Z"/>
                  <path class="cls-46" d="M211.52,23.46c-3.59-6.02,4.95-8.31,10.88-5.55,7.1,1.12,10.97,5.37,11.62,12.75,6.35.1,11.44,8.18,8.4,15.88-1.25,4.05-4.1,4.81-8.55,2.28l-19.32-15.79-3.03-9.57Z"/>
                </g>
                <path class="cls-28" d="M79.09,136.16c-15.49-17-19.36-38.53-12.02-61.92,7.58-30.63,34.86-53.59,64.75-64.31,37.41-12.26,71.16-1.46,96.13,18.86,23.94,21.07,32.01,50.54,22.79,79.99-4.87,19.23-20.38,36.78-31.63,50.46l-118.13-.52-21.89-22.56Z"/>
                <g>
                  <path class="cls-1" d="M90.02,136.07c-5.13-13.54-16.94-13.6-24.7-4.82-8.18,11.44-3.33,26.75,6.76,31.99,7.62,5.45,14.71,4.75,21.25-2.09l-3.3-25.08Z"/>
                  <path class="cls-21" d="M77.5,140.45c-5.09-8.08-10.36-3.46-9.71,3.92.53,4.33,3.11,7.16,7.75,8.5"/>
                  <path class="cls-38" d="M238.41,117.74c9.81-10.27,19.71-9.61,24.51.25,5.13,13.54-4.78,30.16-15.52,34.82-6.48,2.61-12.25.79-17.32-5.47l8.33-29.6Z"/>
                  <path class="cls-42" d="M243.68,130.4c4.77-12.88,13.5-10.59,11.35-2.75-1.22,7.69-4.72,12.59-10.51,14.7"/>
                </g>
                <path class="cls-47" d="M98.31,83.73c14.44-22.27,43.54-39.48,73.65-40.17,30.54-3.35,55.65,16.09,67.64,37.99,9.47,20.6,6.89,48.38-1.95,69.71-10.28,24.74-31.72,39.53-59.32,41.53-26.71,2.14-57.8-8.25-75.07-25.53-14.14-14.06-18.57-32.04-15.62-50.67,1.38-12.51,4.93-23.47,10.66-32.87Z"/>
                <ellipse class="cls-50" cx="110.97" cy="153.03" rx="14.82" ry="10.78" transform="translate(-2.65 1.96) rotate(-1)"/>
                <ellipse class="cls-29" cx="225.79" cy="145.75" rx="14.37" ry="10.78" transform="translate(-2.51 3.96) rotate(-1)"/>
                <g>
                  <path class="cls-20" d="M87.78,132.99c-7.89-7.61-12.41-19.24-12.36-31.06-4.57-17.09,3.24-37.68,16.55-52.85C116.69,19.35,150.08,3.73,182.01,8.78c29.41,3.75,50.7,24.4,62.87,50.88,8.26,16.77,7.83,36.7.16,56.4-1.58-12.98-3.77-27.88-9.6-36.98-12.88-4.77-23.53-6.45-36.98-7.68-1.86-11.21-6.39-22.84-13.25-31.2,4.38,12.52,4.15,19.75,2.74,28.62-15.94,1.11-32.36,3.36-49.26,6.75-3.03-9.57-2.98-21.39-2.6-29.51l-5.95,31.79c-12.37,3.5-26.06,9.51-34.7,18.15-6.12,9.94-6.6,24.42-6.23,33.57.03,3.64-.45,4.78-1.45,3.41Z"/>
                  <path class="cls-12" d="M98.18,50.07c23.41-27.21,50.03-40.27,77.2-39.6"/>
                  <path class="cls-6" d="M95.73,94.24c-1.44-13.87,6.69-30.77,15.47-40.29M131.38,47.14l-2.58,27.78M182.28,41.56c2.64,10.12,3.99,18.82,4.05,26.1M212.86,43.68c9.92,10.06,17,20.88,21.23,32.46"/>
                  <path class="cls-26" d="M152.59,22.31c11.77-5.41,27.27-5.68,37.07,1.33-9.76-1.55-15.36-.61-23.02,1.81,5.6-.93,10.38-.48,14.33,1.36-8.83,4.06-19.89,5.03-26.24,4.94l-2.14-9.43Z"/>
                </g>
              </g>
              <path class="cls-3" d="M114.24,131.25c2.19-16.38,23.42-18.5,28.32-2.5"/>
              <path class="cls-3" d="M191.37,127.21c2.19-16.38,23.42-18.5,28.32-2.5"/>
              <path class="cls-13" d="M118.74,100.08c7.52-5.19,15.56-6.21,24.12-3.06M187.7,94.67c8.18-4.03,16.29-3.85,24.31.52"/>
              <path class="cls-18" d="M163.29,143.62c2.74-4.94,6.01-5.41,9.82-1.41"/>
              <g>
                <path class="cls-30" d="M146.86,156.17c2.17-10.01,8.97-.47,20.63-1.08,10.86,1.23,17.66-6.32,19.83.76,1.65,14.3-7.51,28.27-17.42,27.89-12.56.66-22.04-8.74-23.46-18.56-.82-4.15-.68-7.16.43-9.02Z"/>
                <path class="cls-49" d="M151.15,169.43c7.79-5.8,22.28-3.87,30.73,2.89-3.16,8.26-9.25,12.18-16.57,9.86-6.67-1.45-11.39-5.7-14.16-12.75Z"/>
              </g>
            </g>
            <path class="cls-52" d="M145.79,199.55c15.27,10.95,31.37,12.36,48.31,4.23l.35,6.34c-7.19,6.58-15.83,9.13-25.91,7.65-11.33-.99-19.4-5-24.19-12.03l1.44-6.18Z"/>
          </g>
        </g>
      </g>
    </g>
  </g>
</svg>